<?xml version="1.0" encoding="utf-8"?>
<!-- Generator: Adobe Illustrator 23.0.3, SVG Export Plug-In . SVG Version: 6.00 Build 0)  -->
<svg version="1.1" id="Capa_1" xmlns="http://www.w3.org/2000/svg" xmlns:xlink="http://www.w3.org/1999/xlink" x="0px" y="0px"
	 viewBox="0 0 1200 1200" enable-background="new 0 0 1200 1200" xml:space="preserve">
<g>
	<g>
		<path fill="#D1D1D1" d="M739.65,553.563l-2.731-3.356l-9.681-0.141l-0.048,3.316c-9.414,27.637-31.933,48.75-59.666,55.182
			l0.502,2.319c13.987,24.224,35.95,34.36,65.962,34.796c28.705,0.417,54.162-10.737,69.191-32.831l0.217-1.102
			C773.225,606.148,748.832,583.38,739.65,553.563z"/>
	</g>
	<g>
		<path fill="#D1D1D1" d="M654.026,585.285c-30.243,6.261-60.194-7.576-66.503-34.469c-14.994-57.188-27.071-111.336-61.631-160.003
			c0.13,2.779,0.25,5.545,0.351,8.285c0.629,16.66-2.869,29.105-9.259,37.723l0.928,0.683c9.385,25.062,15.432,42.37,25.985,58.504
			c5.931,9.132,13.342,17.917,23.621,27.514c-0.69,47.429,35.563,86.417,80.948,87.077c6.565,0.095,12.941-0.616,19.059-2.034
			c27.733-6.431,50.252-27.545,59.666-55.182l0.048-3.316l-0.234-0.003c0,0-10.723-5.089-23.402-12.973
			C692.96,559.569,677.089,579.874,654.026,585.285z"/>
	</g>
	<g>
		<path fill="#FFFFFF" d="M738.708,58.453c-26.763-0.389-57.263,0.541-79.763,4.2c-25.061,11.602-45.66,24.733-62.609,39.035
			c2.547-1.013,5.133-1.996,7.811-2.913c-2.677,0.917-5.264,1.9-7.811,2.913c-93.975,79.299-74.837,194.887-70.444,289.123
			c34.56,48.668,46.637,102.815,61.631,160.003c6.309,26.894,36.26,40.73,66.503,34.469c23.063-5.411,38.934-25.715,49.575-48.195
			c-19.499-12.124-43.635-30.876-40.604-48.027c5.001-28.304,39.434-23.18,67.805-22.767c28.337,0.412,62.904-3.709,67.081,24.728
			c1.774,11.987-8.788,24.375-21.591,34.706c-5.241,44.595,47.63,63.209,75.697,38.981c44.031-32.862,64.956-89.512,89.133-139.413
			c3.519-8.986,6.217-18.376,8.22-27.889c1.079-14.313,2.514-29.111,3.86-44.208c-0.15-3.88-0.398-7.725-0.814-11.496
			c0.415,3.77,0.664,7.616,0.814,11.496c7.787-87.385,12.36-184.705-74.97-255.061c-6.082-2.183-12.52-4.102-19.375-5.712
			c6.855,1.61,13.294,3.529,19.375,5.712c-14.698-11.841-31.984-22.923-52.312-33.06C800.908,59.425,769.557,58.902,738.708,58.453z
			"/>
	</g>
	<g>
		<path fill="#D1D1D1" d="M948.784,405.241c0.171-2.592,0.36-5.206,0.558-7.832c-2.004,9.513-4.701,18.903-8.22,27.889
			c-24.177,49.902-45.102,106.551-89.133,139.413c-28.067,24.228-80.939,5.613-75.697-38.981
			c-17.572,14.179-39.373,24.477-39.373,24.477l2.731,3.356c9.182,29.817,33.575,52.584,63.746,58.182
			c4.344,0.8,8.76,1.233,13.281,1.299c39.424,0.573,72.805-27.954,81.34-66.559c1.291-5.844,2.016-11.897,2.106-18.128
			c29.152-25.674,36.278-45.706,52.119-84.539l4.043-1.549C950.583,433.543,947.712,421.307,948.784,405.241z"/>
	</g>
	<g>
		<path fill="#D1D1D1" d="M596.336,101.689c-122.363,48.651-96.001,205.546-110.7,313.635
			c-4.256,23.431-24.263,28.311-46.104,23.568c31.313,17.238,62.42,18.25,77.451-2.073c6.391-8.618,9.888-21.063,9.259-37.723
			c-0.101-2.74-0.221-5.506-0.351-8.285c-2.023-2.848-4.092-5.685-6.273-8.495c2.182,2.81,4.251,5.647,6.273,8.495
			C521.499,296.576,502.361,180.988,596.336,101.689z"/>
	</g>
	<g>
		<path fill="#FFFFFF" d="M596.336,101.689c16.949-14.302,37.549-27.433,62.609-39.035
			c-105.778-1.538-306.372,64.091-308.591,216.728c-1.114,76.609,44.244,134.774,89.178,159.511
			c21.841,4.743,41.848-0.137,46.104-23.568C500.335,307.235,473.973,150.34,596.336,101.689z"/>
	</g>
	<g>
		<path fill="#FFFFFF" d="M949.342,397.408c3.104-14.737,4.416-29.774,3.859-44.204C951.856,368.3,950.421,383.096,949.342,397.408z
			"/>
	</g>
	<g>
		<path fill="#D1D1D1" d="M991.949,385.835C974.385,280.558,993.6,139.553,878.231,98.141
			c87.331,70.356,82.757,167.677,74.97,255.062c0.557,14.43-0.755,29.468-3.859,44.204c-0.198,2.626-0.388,5.241-0.559,7.833
			c-1.071,16.066,1.8,28.302,7.502,37.029c20.882,32.039,79.767,17.114,122.803-29.224c-7.283,3.769-15.212,6.363-23.986,7.209
			C1028.258,423.215,998.307,409.379,991.949,385.835z"/>
	</g>
	<g>
		<path fill="#FFFFFF" d="M825.919,65.082c20.329,10.137,37.615,21.219,52.312,33.06c115.369,41.411,96.154,182.417,113.717,287.693
			c6.358,23.544,36.309,37.38,63.154,34.421c8.774-0.846,16.703-3.44,23.986-7.209c27.339-29.436,48.284-71.543,49.023-122.355
			C1130.332,138.054,931.73,66.62,825.919,65.082z"/>
	</g>
	<g>
		<path fill="#D1D1D1" d="M262.025,847.335c-1.765,6.206-4.132,12.302-6.9,18.359c-1.124,10.503,5.373,31.369,7.913,41.021
			c11.399,43.216,14.57,120.083,14.57,120.083s14.509,48.186,17.557,48.231c3.081,0.045,47.529,0.691,69.402,1.009
			c20.432,0.297,34.267-52.603-10.215-60.118c-29.805-65.327,21.528-137.281,37.268-148.342l0.409-0.463
			c-41.196-34.609-76.062-71.711-99.642-72.971c-6.146,8.755-11.829,18.514-16.964,23.502c5.135-4.988,10.818-14.746,16.964-23.502
			c-0.461-0.025-0.925-0.062-1.377-0.058C279.756,807.591,268.272,825.515,262.025,847.335z"/>
	</g>
	<g>
		<path fill="#FFFFFF" d="M211.511,278.137c-13.75-4.547-32.247-2.485-46.56,10.576c-85.999,75.939-100.779,290.54,2.349,338.441
			c7.028-7.741,14.484-14.67,22.096-20.717C108.063,515.468,139.421,370.277,211.511,278.137z"/>
	</g>
	<g>
		<path fill="#D1D1D1" d="M225.066,315.485c12.548-16.992,2.898-31.906-13.556-37.347c-72.09,92.139-103.447,237.331-22.115,328.299
			c12.45-9.891,25.318-17.407,37.424-22.138C115.091,528.903,204.219,343.725,225.066,315.485z"/>
	</g>
	<g>
		<path fill="#D1D1D1" d="M127.788,1063.415c-26.553-17.137-32.716-54.079-25.53-87.477
			c16.449-64.885,50.193-138.122,21.364-202.289c0.679,3.726,1.475,7.481,2.42,11.27c16.019,64.189-49.342,158.519-53.564,190.787
			c-4.221,32.268,14.096,138.837,14.096,138.837s118.702,9.03,131.94,6.408c6.209-1.238,12.556-21.552,10.167-42.59
			C195.854,1097.863,153.997,1084.418,127.788,1063.415z"/>
	</g>
	<g>
		<path fill="#FFFFFF" d="M326.152,784.881c-12.263-16.855-23.643-5.159-33.766,9.263c23.579,1.26,58.446,38.362,99.642,72.971
			c38.948,32.728,83.546,63.194,129.589,58.918c-20.266-47.034-49.658-88.214-51.206-139.544c-0.079,0.159-0.15,0.331-0.23,0.486
			c0.081-0.156,0.152-0.327,0.23-0.486c-0.062-2.064-0.163-4.115-0.133-6.213C432.849,819.935,368.867,842.456,326.152,784.881z"/>
	</g>
	<g>
		<path fill="#D1D1D1" d="M599.632,1100.429c-19.464-43.836-8.636-97.282-24.702-144.419
			c-32.424-74.176-51.449-148.158-90.621-219.082c-9.728-16.762-3.89,29.353-13.898,49.562c1.548,51.329,30.94,92.51,51.206,139.544
			c0.048-0.005,0.097-0.006,0.146-0.01c20.68,40.839,44.524,85.241,43.888,129.019c-0.428,29.442-3.085,64.715,8.547,73.461
			c11.666,8.713,92.3,20.606,124.056,7.131c3.754-1.589,6.874-4.454,9.339-8.197c-2.456,0.824-5.063,1.291-7.865,1.25
			C662.932,1124.801,612.543,1134.119,599.632,1100.429z"/>
	</g>
	<g>
		<path fill="#D1D1D1" d="M898.017,546.486c-8.534,38.605-41.916,67.132-81.34,66.559c-4.521-0.066-8.938-0.499-13.281-1.299
			l-0.217,1.102c-15.029,22.094-40.485,33.248-69.191,32.831c-30.012-0.436-51.976-10.572-65.962-34.796l-0.502-2.319
			c-6.118,1.419-12.494,2.13-19.059,2.034c-45.386-0.66-81.638-39.648-80.948-87.077c-10.279-9.597-17.689-18.382-23.621-27.514
			l-1.522,0.983c-5.19,5.563-11.763,10.917-19.335,16.059c14.336,72.394,57.248,128.559,146.761,139.469
			c23.398,3.69,69.755,41.217,106.844,25.005c40.535-22.862,67.77-52.618,118.159-61.936c0.402-0.127,0.83-0.311,1.252-0.48
			c3.718-29.431,4.03-54.034,2.332-68.55L898.017,546.486z"/>
	</g>
	<g>
		<path fill="#FFFFFF" d="M828.325,1040.1c18.942-3.16,31.787-13.479,39.907-27.276c-6.616-5.145-16.021-9.154-28.829-11.158
			l0-0.034c-0.477-14.473,2.263-46.168,5.309-81.781c-32.577-2.264-71.57,14.752-105.619,18.554
			c11.073,31.664,20.622,65.453,21.739,80.424C777.507,1034.596,798.872,1043.871,828.325,1040.1z"/>
	</g>
	<g>
		<path fill="#D1D1D1" d="M868.232,1012.824c-8.12,13.797-20.966,24.116-39.907,27.276c-29.453,3.772-50.818-5.504-67.493-21.27
			c0.083,1.111,0.13,2.142,0.117,3.037c-0.376,25.858,6.384,47.097,6.384,47.097c10.241,7.653,64.679,14.81,92.624,2.988
			C880.059,1063.443,891.624,1031.015,868.232,1012.824z"/>
	</g>
	<g>
		<path fill="#FFFFFF" d="M849.713,773.065c-0.438-1.768-0.944-3.261-1.527-4.447c27.929-49.776,42.062-107.548,47.868-153.51
			c-0.422,0.169-0.85,0.352-1.252,0.48c-50.389,9.318-77.623,39.074-118.159,61.936c-37.088,16.212-83.446-21.315-106.844-25.005
			c-89.513-10.909-132.425-67.075-146.761-139.469c-66.757,45.337-215.556,73.333-261.936,65.918
			c-9.693-1.548-21.547,0.357-34.283,5.331c-12.106,4.73-24.974,12.247-37.424,22.138c1.709,1.912,3.45,3.808,5.259,5.671
			c-1.809-1.863-3.55-3.759-5.259-5.671c-7.612,6.047-15.068,12.977-22.096,20.717c-31.707,34.995-54.611,86.458-43.677,146.495
			c28.83,64.167-4.914,137.404-21.364,202.289c-7.186,33.398-1.023,70.34,25.53,87.477c26.208,21.003,68.066,34.447,100.892,14.945
			c-2.252-19.831-12.264-40.304-37.556-46.053c1.144-78.647,43.718-121.916,64-166.614c2.768-6.057,5.135-12.154,6.9-18.359
			c6.247-21.82,17.731-39.744,28.983-53.249c0.452-0.003,0.916,0.034,1.377,0.058c10.123-14.422,21.504-26.118,33.766-9.263
			c42.716,57.575,106.698,35.054,144.127-4.605c-0.031,2.098,0.071,4.149,0.133,6.213c10.008-20.209,4.17-66.324,13.898-49.562
			c39.171,70.924,58.197,144.906,90.621,219.082c16.066,47.137,5.238,100.583,24.702,144.419
			c12.911,33.69,63.3,24.372,100.096,28.257c2.802,0.041,5.409-0.427,7.865-1.25c15.619-23.719,3.982-84.016-52.804-96.995
			c-0.424-19.203,2.425-60.771,5.016-105.359c15.871-4.024,41.561-19.698,61.214-32.579c0.41,0.893,0.827,1.823,1.242,2.755
			c0.326-0.256,0.651-0.512,0.973-0.746C777.324,862.528,807.876,811.691,849.713,773.065z"/>
	</g>
	<g>
		<path fill="#D1D1D1" d="M844.712,919.852c4.885-57.129,10.555-124.344,5-146.787c-41.837,38.626-72.389,89.463-126.479,121.447
			c-0.322,0.234-0.647,0.49-0.973,0.746c5.416,12.116,11.31,27.358,16.832,43.148C773.143,934.604,812.135,917.588,844.712,919.852z
			"/>
	</g>
	<g>
		<path d="M797.882,491.024c-4.177-28.437-38.744-24.316-67.081-24.728c-28.371-0.413-62.803-5.537-67.805,22.767
			c-3.03,17.151,21.106,35.902,40.604,48.027c1.767-3.734,3.407-7.521,4.894-11.317c-1.487,3.796-3.126,7.583-4.894,11.317
			c12.679,7.884,23.402,12.973,23.402,12.973l0.234,0.003l9.681,0.141c0,0,21.801-10.297,39.373-24.477
			c0.461-3.921,1.322-8.021,2.739-12.333l-0.049,3.349l0.049-3.349c-1.416,4.312-2.278,8.412-2.739,12.333
			C789.094,515.399,799.656,503.011,797.882,491.024z"/>
	</g>
	<g>
		<g>
			<g>
				<path fill="#3D403C" d="M683.707,665.598c-2.979-0.131-5.461,0.372-7.542,1.32c-0.959,0.184-1.918,0.365-2.883,0.63
					c-6.383,1.753-10.915,9.91-9.468,16.222c0.052,0.226,0.152,0.398,0.214,0.613c-0.137,0.685-0.246,1.377-0.309,2.079
					c-0.721,8.001,2.043,16.974,7.178,23.093c5.173,6.164,15.923,12.394,24.196,11.847c5.609-0.371,10.057-3.044,13.127-6.907
					c7.536-7.083,6.398-22.652,1.815-30.738C704.914,674.725,694.483,666.071,683.707,665.598z"/>
			</g>
		</g>
		<g>
			<g>
				<path fill="#3D403C" d="M771.164,227.633c-1.185-6.545-6.276-10.519-12.475-12.152c-3.034-0.799-6.223-1.119-9.336-1.425
					c-1.119-0.11-2.24-0.196-3.358-0.302c-0.073-0.007-0.145-0.017-0.218-0.023c-2.082-2.012-5.089-3.168-7.815-2.097
					c-11.259,4.426-18.097,14.654-13.573,26.745c3.934,10.513,14.633,17.946,25.986,16.591
					C762.387,253.535,773.389,239.919,771.164,227.633z"/>
			</g>
		</g>
		<g>
			<g>
				<path fill="#3D403C" d="M735.929,810.401c6.016,3.995,12.732,4.321,19.06,2.367c1.278-0.172,2.544-0.446,3.783-0.847
					c7.279-2.359,13.33-8.364,16.571-15.507c1.116-1.826,2.045-3.705,2.74-5.593c1.838-4.987,2.221-11.083,0.799-16.56
					c0.012-0.162,0.047-0.333,0.055-0.494c0.279-5.252-1.16-10.369-5.209-13.885c-2.511-2.181-5.763-3.222-9.103-3.389
					c-0.459-0.113-0.926-0.219-1.435-0.289c-13.84-1.909-25.879,8.162-31.487,20.096
					C726.654,787.045,724.513,802.82,735.929,810.401z"/>
			</g>
		</g>
		<g>
			<g>
				<path fill="#3D403C" d="M795.406,926.137c6.532,16.578,21.965,30.321,39.968,27.579c7.446-1.134,7.569-9.407,3.348-13.719
					c4.49-3.408,6.837-9.026,5.569-14.392c0.193-0.641,0.381-1.283,0.608-1.913c0.427-1.243,0.931-2.466,1.329-3.719
					C830.418,918.57,813.038,921.882,795.406,926.137z"/>
			</g>
			<g>
				<path fill="#2B2924" d="M847.041,908.055c-0.693-2.532-1.918-4.391-3.447-5.723c-0.262-1.37-0.864-2.742-1.99-4.023
					c-6.583-7.49-16.729-14.8-27.047-15.11c-13.051-0.391-21.419,11.174-22.393,23.234c-0.523,6.475,0.715,13.295,3.241,19.705
					c17.632-4.255,35.013-7.566,50.822-6.164c0.024-0.077,0.056-0.153,0.08-0.23C847.453,915.99,848.093,911.898,847.041,908.055z"
					/>
			</g>
		</g>
		<g>
			<g>
				<path fill="#2B2924" d="M630.487,1135.828c-2.508,10.068,12.292,14.765,15.711,5.731c1.977,3.337,5.659,5.223,10.227,4.981
					c3.766-0.199,7.033-1.457,10.013-3.327c1.241,0.488,2.526,0.807,3.834,0.876c2.736,5.352,12.925,6.308,16.037-1.268
					c1.977-4.812,2.261-9.985,1.313-14.988c-17.893-0.786-37.491-0.062-53.916-3.2
					C632.42,1128.366,631.391,1132.198,630.487,1135.828z"/>
			</g>
			<g>
				<path fill="#3D403C" d="M659.422,1101.924c-14.688-0.275-21.577,10.694-25.717,22.709c16.425,3.138,36.023,2.414,53.916,3.2
					C685.069,1114.37,673.305,1102.183,659.422,1101.924z"/>
			</g>
		</g>
		<g>
			<g>
				<path fill="#3D403C" d="M538.603,623.859c-4.922-3.661-10.452-3.008-14.684-0.046c-3.416,0.618-6.625,2.992-7.333,7.19
					c0.03-0.225,0.02-0.213-0.068,0.315c-0.008,0.059-0.029,0.107-0.036,0.166c-0.008,0.072-0.008,0.081-0.014,0.134
					c-0.005,0.027-0.005,0.032-0.01,0.06c-0.096,0.587-0.198,1.174-0.298,1.761c-0.352,2.075-0.701,4.151-1.024,6.231
					c-0.776,5.008-1.532,10.051-1.758,15.12c-0.362,8.086,0.43,19.4,9.763,22.191c10.257,3.068,21.361-7.154,21.313-17.197
					c1.903-3.845,2.948-8.183,2.947-12.862C547.398,639.038,545.35,628.878,538.603,623.859z"/>
			</g>
		</g>
		<g>
			<g>
				<path fill="#3D403C" d="M574.387,905.097c-1.272-0.848-2.544-1.514-3.808-2.037c-3.579-2.432-7.839-3.78-12.111-3.212
					c-1.946,0.259-3.748,0.915-5.408,1.819c6.818,18.075,13.94,36.203,21.87,54.343c0.215,0.63,0.374,1.272,0.579,1.904
					C597.351,947.447,592.152,916.952,574.387,905.097z"/>
			</g>
			<g>
				<path fill="#2B2924" d="M553.061,901.667c-3.942,2.147-6.99,5.849-8.599,10.089c-1.402,1.41-2.296,3.337-2.481,5.67
					c-1.292,16.267,10.355,50.571,32.493,41.033c0.374-0.161,0.677-0.373,1.036-0.545c-0.205-0.632-0.365-1.274-0.579-1.904
					C567.001,937.87,559.878,919.742,553.061,901.667z"/>
			</g>
		</g>
		<g>
			<g>
				<path fill="#3D403C" d="M656.38,392.752c34.479-10.188,64.942-44.02,54.999-81.782c-2.623-9.963-7.876-19.722-14.902-27.266
					c-4.656-4.998-10.537-8.424-15.497-13.053c-4.768-4.45-7.283-9.743-11.299-14.75c-8.116-10.113-19.429-11.504-31.422-8.75
					c-9.84,2.26-26.689,5.266-34.167,12.217c-7.222,6.714-17.34,13.116-20.572,22.699c-3.669,10.88-1.161,22.769-4.674,33.695
					c-3.731,11.604-11.839,21.464-12.097,34.139C565.953,389.14,627.811,401.193,656.38,392.752z"/>
			</g>
		</g>
		<g>
			<g>
				<path fill="#3D403C" d="M590.976,474.281c13.244-0.623,21.69-9.443,24.526-22.048c1.62-7.199,1.891-16.022-1.099-23.101
					c-0.38-3.44-2-6.588-5.527-7.65c-0.011-0.003-0.022-0.006-0.033-0.009c-0.723-0.602-1.484-1.174-2.328-1.68
					c-2.999-1.797-5.923-1.494-8.204-0.094c-2.006,0.06-4.027,0.412-6.09,1.2c-5.83,2.226-10.057,7.252-12.079,13.043
					c-1.196,3.427-1.569,7.118-1.908,10.721c-0.097,1.033-0.211,2.062-0.321,3.092c-1.098,2.297-2.04,4.654-2.686,7.114
					C572.249,466.213,579.235,474.834,590.976,474.281z"/>
			</g>
		</g>
		<g>
			<g>
				<path fill="#3D403C" d="M968.273,161.817c-0.548,3.701-0.746,7.639,1.158,11.033c2.461,4.39,7.424,6.126,12.211,5.031
					c9.194-2.105,17.837-11.504,18-21.044c0.149-8.681-5.782-16.589-13.759-19.633c-10.989-4.194-20.571,3.828-22.921,14.385
					C962.011,155.865,964.015,160.344,968.273,161.817z"/>
			</g>
		</g>
		<g>
			<g>
				<path fill="#3D403C" d="M1085.717,409.791c0.973-0.511,1.719-1.32,2.379-2.21c-1.391,0.974-2.807,1.903-4.251,2.787
					C1084.464,410.289,1085.087,410.121,1085.717,409.791z"/>
			</g>
			<g>
				<path fill="#3D403C" d="M1107.724,376.408c5.177-9.715,13.415-26.902,8.352-37.951c-0.121-0.265-0.249-0.527-0.382-0.786
					c-5.267-10.255-19.387-15.566-29.834-11.654c-11.992,4.491-19.337,17.246-20.809,29.484
					c-1.232,10.242-0.521,21.062,2.106,31.038c1.307,4.962,8.445,24.871,16.687,23.828c1.444-0.884,2.86-1.813,4.251-2.787
					c0.418-0.563,0.808-1.153,1.179-1.742C1095.44,396.034,1102.276,386.63,1107.724,376.408z"/>
			</g>
		</g>
		<g>
			<g>
				<path fill="#3D403C" d="M1033.198,316.24c6.721,2.104,13.752-2.063,17.802-7.165c5.157-6.496,5.708-14.808,2.123-22.207
					c-3.901-8.051-13.615-11.67-21.424-6.748c-8.531,5.376-10.129,15.582-7.33,24.472
					C1024.936,309.78,1027.359,314.412,1033.198,316.24z"/>
			</g>
		</g>
		<g>
			<g>
				<path fill="#2B2924" d="M497.585,275.564c4.008,1.704,14.606,9.02,18.648,7.876c2.334-0.661,2.805-3.706,2.864-6.131
					c0.087-3.606,0.251-7.21,0.49-10.809c1.06-15.924,3.605-31.748,7.598-47.2c3.116-12.056,2.81-17.864-10.003-17.943
					c-2.709-0.017-5.464-0.061-8.232-0.073c-7.107,22.953-11.029,47.896-13.481,73.409
					C496.174,274.983,496.883,275.266,497.585,275.564z"/>
			</g>
			<g>
				<path fill="#3D403C" d="M459.376,237.503c-0.828,14.27,7.622,23.668,19.588,29.987c5.313,2.806,10.954,4.917,16.504,7.203
					c2.453-25.513,6.374-50.456,13.481-73.409c-9.47-0.041-19.125,0.344-27.88,3.903
					C467.83,210.569,460.193,223.427,459.376,237.503z"/>
			</g>
		</g>
		<g>
			<g>
				<path fill="#3D403C" d="M953.343,362.269c0.026-1.858-0.053-3.686-0.086-5.528C952.909,358.845,952.95,360.698,953.343,362.269z
					"/>
			</g>
			<g>
				<path fill="#2B2924" d="M965.432,273.706c-6.982,3.605-7.623,15.888-8.442,23.161c-2.195,19.482,0.904,39.367-3.507,58.637
					c-0.097,0.426-0.158,0.829-0.226,1.237c0.033,1.842,0.112,3.67,0.086,5.528c1.317,5.264,6.484,7.408,13.554,5.462
					c13.929-3.834,17.471-16.312,19.252-29.114c-1.945-20.831-3.477-42.216-5.673-63.305
					C975.883,272.567,970.26,271.214,965.432,273.706z"/>
			</g>
			<g>
				<path fill="#3D403C" d="M985.796,279.533c-1.453-1.56-3.297-3.012-5.321-4.221c2.195,21.089,3.728,42.474,5.673,63.305
					c0.901-6.477,1.359-13.036,2.466-18.604C991.195,307.037,996.113,290.607,985.796,279.533z"/>
			</g>
		</g>
		<g>
			<g>
				<path fill="#3D403C" d="M853.087,640.393c3.617,14.261,18.209,17.218,31.058,16.918c8.431-0.197,10.4-10.514,5.659-14.846
					c0.644-1.323,1.26-2.656,1.939-3.965c2.314-4.466,2.296-9.603-0.236-13.164c0.339-3.118,0.671-6.235,1.211-9.298
					c-15.262,3.035-28.424,7.933-40.476,13.955C852.085,633.488,852.217,636.966,853.087,640.393z"/>
			</g>
			<g>
				<path fill="#2B2924" d="M901.166,587.636c0.563-12.491-13.638-12.843-20.7-6.271c-2.69,2.504-6.31,7.455-7.16,12.009
					c-0.394,0.185-0.797,0.372-1.182,0.549c-2.743,1.259-5.223,3.272-7.018,5.721c-5.01-1.802-11.464,0.585-11.085,7.353
					c0.425,7.589-1.44,15.343-1.78,22.994c12.052-6.021,25.214-10.919,40.476-13.955c0.425-2.408,0.967-4.786,1.815-7.086
					C897.188,601.738,900.811,595.505,901.166,587.636z"/>
			</g>
		</g>
		<g>
			<g>
				<path fill="#3D403C" d="M834.454,550.619c5.225,0.82,10.292-0.941,14.183-4.187c0.538-0.295,1.062-0.625,1.556-1.005
					c8.134-6.256,11.812-19.691,9.396-29.426c-3.051-12.292-18.055-16.617-27.658-8.725c-6.242,5.129-9.527,14.488-8.292,22.622
					c-0.153,0.449-0.359,0.874-0.488,1.333C820.636,540.224,824.711,549.091,834.454,550.619z"/>
			</g>
		</g>
		<g>
			<g>
				<path fill="#3D403C" d="M947.314,98.923c2.562-3.222,5.034-4.093,2.729-7.338c-1.168-1.643-6.387-2.853-9.97-3.724
					c-1.141-0.277-2.117-0.521-2.742-0.733c-18.141-6.146-36.604-11.725-55.626-14.354c-10.82-1.495-20.12-6.656-31.287-7.192
					c-19.189-0.921-39.614,8.081-40.646,29.608c-1.008,21.025,13.191,43.058,26.546,58.19c16.509,18.707,44.54,24.287,68.412,22.751
					c6.427-0.413,12.84-1.364,19.075-2.988c6.687-1.742,11.309-1.65,10.513-8.588c-1.542-13.444-13.992-29.349-22.753-38.965
					c-1.387-1.522-2.93-3.439-2.326-5.407c0.449-1.462,1.928-2.313,3.284-3.02c0.378-0.197,0.767-0.309,1.151-0.461
					c-14.67-10.742-32.645-19.067-54.817-24.273c22.173,5.206,40.147,13.531,54.817,24.273c5.664-2.241,11.978,0.052,18.112-2.796
					C938.623,110.733,942.772,104.634,947.314,98.923z"/>
			</g>
		</g>
		<g>
			<g>
				<path fill="#3D403C" d="M898.982,402.92c-0.052-0.105-0.079-0.216-0.134-0.321c-0.971-1.86-2.593-3.261-4.477-4.122
					c-2.73-2.036-5.801-3.342-8.817-3.165c-4.281-0.552-8.552,0.845-11.959,3.771c-0.35,0.301-0.622,0.666-0.945,0.99
					c-3.171,1.865-5.929,4.645-7.955,8.431c-5.38,10.051-3.232,23.15,6.791,29.379c9.222,5.731,24.965,5.375,31.428-4.358
					c5.21-7.847,3.091-18.32-0.962-26.167C901.202,405.906,900.182,404.382,898.982,402.92z"/>
			</g>
		</g>
		<g>
			<g>
				<path fill="#3D403C" d="M454.274,150.765c7.486,2.63,15.779,0.8,22.644-2.735c11.168-5.751,19.662-17.655,18.702-30.569
					c-0.362-4.866-2.027-13.199-7.442-14.049c-5.918-0.929-20.218,8.455-25.893,10.854c-7.211,3.048-19.271,8.211-21.247,16.967
					C439.276,139.041,447.339,148.328,454.274,150.765z"/>
			</g>
		</g>
		<g>
			<g>
				<path fill="#2B2924" d="M553.153,505.432c-1.067-1.112-2.269-2.105-3.791-2.781c-4.647-2.067-10.071-1.038-14.206,1.704
					c-2.94-2.599-7.371-3.356-10.919,0.28c-0.87,0.892-1.59,1.872-2.233,2.89c1.57,8.908,3.558,17.584,5.994,25.98
					c5.024,3.214,11.407,4.004,17.51,2.468c1.889-0.475,3.766-1.784,4.921-3.49c4.358-3.462,7.153-8.792,7.378-14.34
					c0.779-2.754,0.769-6.559-0.82-9.067C555.931,507.41,554.61,506.24,553.153,505.432z"/>
			</g>
			<g>
				<path fill="#3D403C" d="M521.813,527.076c1.588,2.769,3.738,4.863,6.185,6.429c-2.436-8.396-4.424-17.072-5.994-25.98
					C518.318,513.356,518.303,520.953,521.813,527.076z"/>
			</g>
		</g>
		<g>
			<g>
				<path fill="#3D403C" d="M136.846,343.346c-2.178-4.257-6.983-5.329-11.036-3.049c-4.819,2.712-4.087,7.677-5.762,12.174
					c-3.264,8.76-7.406,17.148-10.918,25.804c-2.151,5.3-8.758,16.302-7.139,22.169c2.002,7.257,13.027,8.855,19.046,7.599
					c8.075-1.686,15.276-7.642,20.262-13.978c4.582-5.822,8.45-12.823,8.42-20.441C149.674,362.286,141.755,352.942,136.846,343.346
					z"/>
			</g>
		</g>
		<g>
			<g>
				<path fill="#3D403C" d="M627.187,176.378c-4.109-5.409-11.027-9.516-17.997-8.171c-7.934,1.531-11.322,9.041-11.636,16.429
					c-0.199,4.676,3.83,8.226,8.252,8.496c0.512,0.031,1.022-0.031,1.534-0.029c2.278,3.372,7.495,5.157,11.079,2.705
					c1.685-1.152,3.155-2.396,4.519-3.904c0.563-0.622,1.192-1.225,1.711-1.88c0.12-0.153,0.201-0.264,0.253-0.345
					c0.079-0.021,0.192-0.064,0.4-0.173C630.544,186.741,630.303,180.481,627.187,176.378z"/>
			</g>
		</g>
		<g>
			<g>
				<path fill="#3D403C" d="M550.887,807.892c0.471,1.238,0.977,2.451,1.549,3.612c5.248,10.645,16.943,12.508,25.331,3.999
					c2.264-2.296,3.807-5.052,4.851-8.007c7.127-10.884,5.64-31.488-8.005-36.359c-1.002-0.357-2.013-0.551-3.022-0.669
					c-6.535-8.962-19.704-1.403-23.814,6.435c-3.079,5.87-4.309,14.001-2.308,20.383
					C546.635,801.008,548.455,804.708,550.887,807.892z"/>
			</g>
		</g>
		<g>
			<g>
				<path fill="#3D403C" d="M684.645,54.349c-3.257,2.108-5.752,4.456-7.717,7.744c-1.068-0.467-2.192-0.761-3.347-0.895
					c-3.978-2.936-9.718-2.892-13.933,0.181c-2.552,1.861-4.858,4.795-6.027,8.02c-4.714-5.94-16.715-1.582-14.653,7.577
					c2.997,13.315,15.278,19.05,28.094,16.692c6.063-1.116,12.238-3.877,16.54-8.38c4.038-4.226,4.703-13.389,9.286-16.355
					C701.893,63.105,693.729,48.47,684.645,54.349z"/>
			</g>
		</g>
		<g>
			<g>
				<path fill="#3D403C" d="M1039.963,235.329c17.561,34.623,46.008-20.383,62.156-26.456c9.975-3.752,5.892-20.016-4.218-16.214
					c-1.126,0.423-2.206,0.908-3.269,1.418c0.878-10.937-6.068-22.875-15.773-27.531c-2.836-1.361-5.65-1.454-8.2-0.683
					c-0.572-4.488-4.468-9.064-10.289-8.333c-16.543,2.078-31.114,10.252-31.984,28.414c-0.393,8.202,1.87,16.522,4.015,24.354
					C1034.651,218.512,1036.094,227.7,1039.963,235.329z"/>
			</g>
		</g>
		<g>
			<g>
				<path fill="#3D403C" d="M118.773,950.393c-0.064,0.28-0.156,0.55-0.229,0.826c-2.474,4.03-4.098,8.868-5.121,13.617
					c-3.738,10.627-4.016,22.746,0.723,30.869c2.041,5.848,5.747,10.551,12.308,11.481c23.796,3.375,31.86-35.543,21.206-55.975
					c-0.224-2.536-1.402-5.084-3.565-6.742c-1.762-4.23-5.996-5.532-9.688-4.686c-0.06-0.016-0.114-0.042-0.174-0.057
					C127.651,938.093,120.408,944.514,118.773,950.393z"/>
			</g>
		</g>
		<g>
			<g>
				<path fill="#3D403C" d="M356.538,782.229c2.753,6.069,4.164,12.763,7.686,18.421c8.581,13.785,26.684,11.156,38.268,3.166
					c21.177-14.608,20.665-43.938,10.318-64.979c-11.779-23.954-36.974-35.795-61.703-23.605
					c-12.789,6.308-16.332,23.301-12.203,36.169C342.532,762.706,351.634,771.417,356.538,782.229z"/>
			</g>
		</g>
		<g>
			<g>
				<path fill="#3D403C" d="M122.967,778.696c1.696,2.296,3.527,4.66,5.36,7.079c-1.629-4.986-3.568-9.929-5.907-14.814
					C121.051,773.112,120.879,775.869,122.967,778.696z"/>
			</g>
			<g>
				<path fill="#2B2924" d="M131.49,797.174c-3.749,3.149-6.238,7.841-5.118,13.005c2.413,11.124,1.66,23.959-4.212,33.929
					c-2.348,3.987-2.508,7.497-1.382,10.277c-6.44,5.277-2.239,17.955,6.875,14.685c1.246-0.447,2.436-0.96,3.593-1.51
					C135.463,843.745,136.65,820.042,131.49,797.174z"/>
			</g>
			<g>
				<path fill="#3D403C" d="M157.718,827.575c4.654-22.799-7.129-39.465-20.167-57.121c-4.261-5.769-12.296-3.945-15.13,0.507
					c2.339,4.885,4.278,9.828,5.907,14.814c2.236,2.951,4.478,5.989,6.5,9.145c-1.184,0.608-2.3,1.383-3.338,2.254
					c5.16,22.868,3.973,46.571-0.244,70.388C146.671,860.23,154.35,844.076,157.718,827.575z"/>
			</g>
		</g>
		<g>
			<g>
				<path fill="#3D403C" d="M392.462,278.392c-3.878-8.993-11.772-19.997-22.933-18.795c-22.419,2.416-19.49,35.632-15.106,50.437
					c1.492,5.039,5.342,16.498,11.142,18.146c6.134,1.743,16.136-6.004,20.104-9.966
					C396.252,307.648,398.289,291.904,392.462,278.392z"/>
			</g>
		</g>
		<g>
			<g>
				<path fill="#3D403C" d="M332.799,633.877c0.021-0.251,0.024-0.501,0.041-0.753c0.114-1.69,0.127-3.375,0.006-5.065
					c-0.053-1.048-0.18-2.082-0.311-3.125c-0.067-0.434-0.125-0.865-0.206-1.297c-0.528-3.36-1.327-6.685-2.676-9.843
					c-5.289-12.386-16.793-22.432-30.014-25.34c-22.437-4.934-47.932,17.583-38.647,40.7c1.873,4.663,5.013,8.689,8.112,12.645
					c7.166,9.148,15.037,18.795,26.16,22.159c11.946,3.614,23.507-0.426,30.483-10.447c0.711-0.758,1.356-1.58,1.829-2.538
					c0.424-0.858,0.782-1.719,1.142-2.58c1.579-3.234,2.709-6.647,3.389-10.188C332.421,636.767,332.67,635.33,332.799,633.877z"/>
			</g>
		</g>
		<g>
			<g>
				<path fill="#3D403C" d="M427.571,565.444c-0.779-1.71-1.876-2.839-3.114-3.537c-0.798-2.256-2.351-4.142-4.945-5.063
					c-7.238-2.57-14.113-0.247-18.599,4.792c-4.195-4.178-13.977-2.32-14.914,5.702c-1.111,9.505-5.838,18.356-3.25,28.136
					c2.801,10.586,14.702,16.334,25.035,14.667C427.33,606.987,434.973,581.689,427.571,565.444z"/>
			</g>
		</g>
		<g>
			<g>
				<path fill="#3D403C" d="M447.43,387.988c32.417,7.217,32.673-45.705,18.63-62.301c-2.121-2.507-4.699-3.147-7.072-2.623
					c-10.359-2.704-19.462,5.211-22.867,15.001c-0.712,2.048-1.182,4.193-1.562,6.363
					C424.863,360.016,426.456,383.318,447.43,387.988z"/>
			</g>
		</g>
		<g>
			<g>
				<path fill="#2B2924" d="M301.869,917.226c-7.696-4.558-17.113-2.792-25.451-1.625c-5.368,0.752-6.932,5.246-5.814,9.327
					c-1.622,2.685-2.334,5.864-1.434,9.232c3.04,11.374,7.622,24.329,2.152,35.66c-5.702,11.814,4.357,19.198,13.229,16.187
					c8.428-0.821,15.057-6.431,19.633-13.852c7.711-8.688,11.197-21.183,9.715-33.055
					C312.865,930.831,309.394,921.683,301.869,917.226z"/>
			</g>
		</g>
		<g>
			<g>
				<path fill="#2B2924" d="M165.062,468.707c-6.213,3.49-12.845,6.568-17.171,12.478c-4.737,6.471-5.814,14.885-3.708,22.542
					c2.785,10.13,14.804,22.563,26.483,16.891c5.955-2.892,5.93-10.302,4.766-17.439c-0.7-4.291-1.811-8.483-2.283-11.534
					c-1.331-8.618,1.2-5.716,3.694-12.114C179.602,472.452,172,464.81,165.062,468.707z"/>
			</g>
		</g>
		<g>
			<g>
				<path fill="#3D403C" d="M198.272,655.724c-1.02-0.926-2.163-1.746-3.533-2.349c-2.543-1.12-5.065-1.277-7.396-0.75
					c-1.34,0.006-2.767,0.404-4.225,1.362c-11.125,7.312-16.166,17.889-14.455,31.087c0.476,3.668,4.64,6.11,7.985,6.265
					c4.723,0.22,3.756,2.556,1.65,7.245c-1.742,3.879-1.576,9.266,2.838,11.501C218.112,728.812,222.004,663.909,198.272,655.724z"
					/>
			</g>
		</g>
	</g>
	<g>
		<g>
			<path d="M825.806,73.457c-0.576-0.008-1.154-0.076-1.734-0.207c-24.47-5.535-55.489-5.986-85.485-6.422
				c-18.216-0.265-52.614-0.086-78.296,4.091c-4.575,0.743-8.868-2.354-9.613-6.922c-0.742-4.565,2.357-8.868,6.922-9.61
				c26.951-4.383,62.461-4.58,81.23-4.307c30.855,0.449,62.761,0.913,88.934,6.832c4.513,1.021,7.343,5.505,6.323,10.017
				C833.199,70.859,829.679,73.513,825.806,73.457z"/>
		</g>
		<g>
			<path d="M784.366,851.78c-2.529-0.037-5.011-1.215-6.628-3.407c-2.743-3.724-1.947-8.967,1.777-11.71
				c23.702-17.463,44.346-41.734,61.363-72.135c46.176-82.296,53.114-183.474,49.188-216.994c-0.538-4.595,2.751-8.754,7.343-9.293
				c4.647-0.534,8.754,2.751,9.293,7.343c4.124,35.214-3.049,141.293-51.21,227.133c-18.185,32.489-40.406,58.545-66.043,77.433
				C787.917,851.276,786.129,851.806,784.366,851.78z"/>
		</g>
		<g>
			<path d="M839.274,1010.007c-4.442-0.065-8.094-3.612-8.241-8.1c-0.486-14.723,2.139-45.419,5.182-80.965
				c4.573-53.491,11.487-134.326,4.455-148.628c-2.04-4.152-0.328-9.169,3.821-11.212c4.149-2.04,9.172-0.325,11.212,3.821
				c8.434,17.155,4.158,76.075-2.8,157.446c-2.87,33.559-5.582,65.255-5.13,78.989c0.152,4.622-3.47,8.492-8.096,8.644
				C839.542,1010.007,839.408,1010.009,839.274,1010.007z"/>
		</g>
		<g>
			<path d="M817.563,1086.504c-24.251-0.353-47.785-5.259-55.246-10.831c-1.398-1.048-2.434-2.505-2.966-4.169
				c-0.291-0.92-7.17-22.849-6.778-49.76c0.251-17.232-21.711-87.746-39.166-125.748c-1.928-4.203-0.086-9.175,4.117-11.106
				c4.196-1.928,9.178-0.089,11.106,4.117c17.277,37.621,41,111.638,40.69,132.981c-0.272,18.704,3.412,34.906,5.133,41.403
				c11.959,5.108,57.812,11.186,82.242,0.849c10.222-4.327,17.387-17.202,15.971-28.696c-1.636-13.281-13.91-22.375-34.56-25.603
				c-4.547-0.73-9.517-1.169-14.815-1.305c-4.624-0.12-8.275-3.965-8.156-8.589c0.12-4.624,4.089-8.257,8.589-8.156
				c6.037,0.156,11.762,0.662,17.004,1.507c40.141,6.276,47.332,30.134,48.561,40.097c2.347,19.036-8.862,38.886-26.07,46.171
				C850.912,1084.872,834.069,1086.744,817.563,1086.504z"/>
		</g>
		<g>
			<path d="M654.701,1040.357c-4.377-0.064-8.01-3.519-8.234-7.952c-0.015-0.347-0.023-0.694-0.031-1.047l-0.012-0.524
				c-0.36-16.207,1.464-46.679,3.58-81.963c0.475-7.907,0.963-16.04,1.439-24.275c2.343-40.097,7.828-133.987-0.454-150.819
				c-2.04-4.149-0.331-9.169,3.821-11.212c4.152-2.027,9.169-0.328,11.212,3.821c8.513,17.317,7.133,73.747,2.145,159.183
				c-0.48,8.244-0.968,16.387-1.443,24.304c-2.094,34.918-3.901,65.073-3.564,80.383l0.037,1.306
				c0.231,4.62-3.324,8.553-7.944,8.787C655.068,1040.356,654.884,1040.36,654.701,1040.357z"/>
		</g>
		<g>
			<path d="M651.494,1149.972c-34.885-0.507-72.883-7.721-82.308-14.761c-13.554-10.186-12.874-38.466-12.158-68.408
				c0.094-4.013,0.192-8,0.248-11.882c0.573-39.38-19.879-79.628-39.657-118.554l-3.33-6.562c-4.253-8.336-9.76-19.291-14.54-29.896
				c-24.864-55.212-45.773-114.622-30.552-174.98c1.132-4.482,5.66-7.207,10.168-6.072c4.485,1.132,7.203,5.683,6.072,10.168
				c-13.967,55.386,5.965,111.554,29.583,164.002c4.631,10.275,10.02,20.996,14.2,29.191l3.333,6.562
				c19.733,38.841,42.103,82.866,41.47,126.384c-0.057,3.935-0.155,7.974-0.25,12.039c-0.474,19.754-1.189,49.608,5.455,54.602
				c8.173,6.054,85.917,18.779,115.752,6.12c7.414-3.138,11.672-15.682,10.367-30.502c-1.947-22.05-16.842-50.685-52.424-58.815
				c-9.622-2.254-20.416-2.865-32.115-1.835c-4.576,0.395-8.669-3.005-9.076-7.611c-0.404-4.606,3.002-8.669,7.611-9.076
				c13.461-1.182,26.033-0.446,37.354,2.202c44.312,10.126,62.897,46.012,65.335,73.664c2,22.669-6.054,41.273-20.516,47.397
				C689.498,1148.447,670.98,1150.255,651.494,1149.972z"/>
		</g>
		<g>
			<path d="M203.912,1129.715c-32.985-0.48-101.793-5.589-117.973-6.823c-3.827-0.291-6.969-3.147-7.617-6.932
				c-0.757-4.402-18.482-108.196-14.146-141.341c1.539-11.766,9.397-28.857,19.347-50.492
				c18.775-40.829,44.485-96.745,34.391-137.18c-14.635-58.688,1.105-118.979,43.181-165.418
				c18.633-20.527,40.891-36.516,62.68-45.033c14.231-5.558,27.592-7.569,38.651-5.801c51.801,8.294,226.12-28.287,273.825-79.417
				c3.151-3.383,8.454-3.568,11.836-0.41c3.383,3.154,3.564,8.454,0.41,11.836c-51.734,55.446-232.849,93.463-288.714,84.534
				c-8.111-1.296-18.458,0.386-29.915,4.862c-19.423,7.589-39.443,22.037-56.368,40.682
				c-38.255,42.221-52.595,96.938-39.333,150.113c11.516,46.138-15.617,105.145-35.429,148.23
				c-8.984,19.542-16.744,36.419-17.955,45.667c-3.43,26.209,9.143,106.512,12.971,129.892c52.947,3.95,110.426,7.253,121.879,6.219
				c3.502-4.824,7.982-24.906,2.891-43.321c-4.392-15.899-14.238-25.694-29.258-29.108c-4.448-1-9.287-1.463-14.448-1.368
				c-4.574,0.028-8.444-3.591-8.531-8.218c-0.087-4.624,3.594-8.444,8.218-8.531c6.47-0.096,12.69,0.482,18.462,1.783
				c28.399,6.456,45.074,30.631,44.615,64.67c-0.17,12.79-4.036,37.687-17.433,40.355
				C217.529,1129.681,211.723,1129.829,203.912,1129.715z"/>
		</g>
		<g>
			<path d="M167.211,635.527l-0.033,0c-1.178-0.017-2.338-0.283-3.408-0.779c-39.348-18.275-65.69-60.481-74.166-118.84
				c-12.616-86.825,17.396-187.196,69.804-233.471c21.937-20.018,53.799-18.158,69.729-3.789
				c12.423,11.196,13.443,27.22,2.664,41.815c-14.675,19.878-65.841,123.577-48.104,196.902c6.604,27.3,22.365,47.294,46.844,59.431
				c4.142,2.056,5.835,7.08,3.782,11.225c-2.049,4.142-7.077,5.842-11.225,3.782c-29.124-14.439-47.86-38.16-55.683-70.504
				c-19.375-80.105,34.66-188.771,50.911-210.785c5.61-7.594,5.473-14.129-0.401-19.427c-8.874-7.994-30.829-11.242-47.328,3.814
				c-48.64,42.947-76.288,136.888-64.419,218.601c7.622,52.471,30.511,90.095,64.449,105.962c3.017,1.307,5.113,4.324,5.062,7.811
				C175.623,631.9,171.837,635.594,167.211,635.527z"/>
		</g>
		<g>
			<path d="M191.001,1040.681c-4.625-0.067-8.319-3.87-8.252-8.495c0.867-59.614,24.364-99.184,45.091-134.096
				c7.388-12.44,14.364-24.188,19.661-35.857c2.818-6.172,4.932-11.788,6.469-17.19c5.673-19.806,15.967-38.75,30.605-56.319
				c16.199-19.437,31.885-30.052,32.545-30.493c3.839-2.575,9.039-1.554,11.617,2.292c2.578,3.839,1.55,9.043-2.292,11.617
				c-0.132,0.09-14.434,9.828-29.005,27.306c-13.133,15.765-22.343,32.654-27.365,50.196c-1.765,6.21-4.168,12.604-7.331,19.533
				c-5.668,12.484-12.872,24.619-20.502,37.467c-19.66,33.112-41.943,70.641-42.745,125.787
				C199.429,1037.054,195.626,1040.749,191.001,1040.681z"/>
		</g>
		<g>
			<path d="M659.136,933.614c-3.922-0.057-7.385-2.875-8.109-6.88c-0.791-4.36,1.95-8.54,6.179-9.611
				c0.191-0.059,0.417-0.128,0.542-0.159c11.549-2.927,31.294-13.515,58.681-31.465c7.511-4.919,14.127-9.413,18.954-12.697
				l4.167-2.822c3.836-2.584,9.04-1.57,11.624,2.266c2.585,3.833,1.57,9.04-2.266,11.624l-4.111,2.787
				c-4.89,3.322-11.588,7.873-19.192,12.85c-29.147,19.105-49.913,30.107-63.463,33.62c-0.516,0.163-0.953,0.274-1.383,0.353
				C660.213,933.58,659.672,933.621,659.136,933.614z"/>
		</g>
		<g>
			<path d="M511.185,934.809c-45.971-0.665-88.523-31.011-124.546-61.281c-9.939-8.35-19.409-16.755-28.573-24.885
				c-26.632-23.633-51.803-45.968-66.686-46.185c-0.167-0.002-0.331,0.005-0.497-0.001c-4.543-0.066-8.22-3.754-8.248-8.319
				c-0.031-4.623,3.692-8.397,8.318-8.428c0.213-0.003,0.432-0.004,0.645,0c21.131,0.307,46.079,22.447,77.585,50.403
				c9.08,8.056,18.466,16.385,28.231,24.588c36.317,30.517,79.372,61.174,123.562,56.981c0.19-0.017,0.377-0.027,0.566-0.034
				l0.564-0.057c4.644-0.358,8.655,3.044,9.043,7.65c0.385,4.609-3.041,8.659-7.65,9.043c-0.439,0.049-0.842,0.083-1.222,0.1
				C518.561,934.727,514.858,934.863,511.185,934.809z M521.884,917.648c-0.023,0-0.046-0.001-0.072-0.001
				C521.839,917.647,521.861,917.647,521.884,917.648z"/>
		</g>
		<g>
			<path d="M364.446,1084.411l-69.404-1.009c-6.493-0.094-9.178-0.134-25.454-54.187c-0.203-0.674-0.32-1.369-0.349-2.069
				c-0.031-0.76-3.266-76.468-14.298-118.294c-0.378-1.438-0.844-3.127-1.36-4.993c-4.15-14.996-7.793-29.261-6.792-38.954
				c0.403-4.313,4.061-7.701,8.46-7.637c4.625,0.067,8.32,3.821,8.253,8.446l-0.001,0.101c-0.004,0.258-0.021,0.513-0.047,0.768
				c-0.784,7.324,3.804,23.903,6.269,32.808c0.538,1.941,1.023,3.699,1.416,5.19c10.899,41.32,14.346,110.953,14.788,120.804
				c4.801,15.866,10.819,34.033,13.922,41.334l64.841,0.943c4.099,0.06,9.756-7.658,10.636-17.329
				c0.607-6.626-0.364-22.436-22.371-26.155c-2.761-0.462-5.725-0.721-8.796-0.766c-4.625-0.067-8.319-3.87-8.252-8.496
				c0.067-4.625,3.87-8.319,8.496-8.252c3.915,0.057,7.732,0.394,11.335,0.996c29.298,4.951,37.849,26.901,36.272,44.195
				C390.324,1070.31,378.217,1084.611,364.446,1084.411z"/>
		</g>
		<g>
			<path d="M354.238,1024.321c-2.136-0.031-4.257-0.877-5.862-2.532c-0.671-0.687-1.247-1.52-1.644-2.393
				c-31.034-68.018,20.236-144.731,40.073-158.671c3.785-2.66,9.006-1.75,11.667,2.038c2.66,3.785,1.747,9.006-2.038,11.667
				c-10.935,7.683-62.831,75.461-34.554,137.819c1.551,3.17,0.986,7.111-1.679,9.696
				C358.539,1023.559,356.381,1024.349,354.238,1024.321z"/>
		</g>
		<g>
			<path d="M736.796,558.582l-9.679-0.141c-1.2-0.017-2.616-0.297-3.698-0.81c-12.49-5.917-74.487-37.098-68.669-70.028
				c5.654-32.01,38.97-30.871,65.749-29.971c7.037,0.24,13.795,0.338,20.843,0.303c26.804-0.117,60.105-0.287,64.827,31.87
				c4.871,32.912-53.857,62.4-65.677,67.977C739.335,558.327,738.071,558.6,736.796,558.582z M728.97,541.717l6.1,0.089
				c24.541-11.932,56.747-34.568,54.527-49.555c-2.435-16.59-19.857-17.694-48.172-17.566c-7.267,0.038-14.234-0.063-21.497-0.313
				c-28.326-0.948-45.769-0.355-48.685,16.148C668.65,505.191,703.575,529.353,728.97,541.717z"/>
		</g>
		<g>
			<path d="M648.344,618.974c-48.741-0.709-88.026-41.561-89.186-91.838c-9.179-8.862-16.312-17.371-22.283-26.563
				c-10.184-15.571-16.214-31.736-24.556-54.111l-2.248-6.023c-1.622-4.332,0.575-9.156,4.907-10.778
				c4.333-1.632,9.156,0.575,10.778,4.907l2.258,6.04c7.964,21.359,13.717,36.79,22.893,50.819
				c5.786,8.905,12.873,17.151,22.325,25.971c1.73,1.615,2.695,3.88,2.661,6.245c-0.621,42.739,31.989,77.992,72.696,78.583
				c5.741,0.083,11.475-0.53,17.043-1.82c24.575-5.699,45.127-24.752,53.633-49.725c1.49-4.379,6.265-6.717,10.627-5.227
				c4.379,1.49,6.718,6.248,5.227,10.627c-10.359,30.41-35.535,53.646-65.701,60.641C662.53,618.32,655.439,619.077,648.344,618.974
				z"/>
		</g>
		<g>
			<path d="M816.556,621.42c-4.949-0.072-9.885-0.556-14.676-1.437c-33.066-6.134-59.976-30.641-70.233-63.956
				c-1.362-4.42,1.117-9.109,5.537-10.467c4.414-1.362,9.109,1.114,10.467,5.537c8.42,27.34,30.365,47.423,57.271,52.414
				c3.86,0.711,7.859,1.102,11.876,1.161c34.526,0.502,65.244-24.731,73.043-59.994c1.184-5.378,1.827-10.911,1.908-16.442
				c0.034-2.362,1.065-4.601,2.838-6.162c26.169-23.048,33.301-40.592,47.511-75.546l2.392-5.871
				c1.744-4.283,6.639-6.342,10.916-4.592c4.283,1.747,6.339,6.636,4.592,10.916l-2.382,5.854
				c-13.786,33.907-22.276,54.798-49.245,79.375c-0.282,5.414-1.011,10.805-2.174,16.078
				C896.693,591.281,858.994,622.037,816.556,621.42z"/>
		</g>
		<g>
			<path d="M990.257,467.761c-17.834-0.259-32.184-7.411-40.988-20.917c-7.015-10.738-9.989-24.925-8.842-42.16
				c0.852-12.885,2.039-25.908,3.299-39.7c9.497-103.915,20.256-221.697-121.545-292.408c-3.498-1.744-5.322-5.677-4.4-9.473
				c0.922-3.798,4.35-6.452,8.259-6.396c105.997,1.541,312.777,73.877,310.447,234.106
				c-1.312,90.198-63.202,156.565-120.768,173.215C1006.674,466.645,998.124,467.875,990.257,467.761z M862.557,76.42
				c117.304,77.151,106.592,194.401,97.849,290.089c-1.249,13.68-2.428,26.603-3.264,39.282c-0.904,13.535,1.168,24.267,6.155,31.9
				c11.911,18.279,37.38,13.254,47.768,10.248c44.361-12.831,107.406-70.138,108.674-157.369
				C1121.659,158.612,967.374,90.914,862.557,76.42z"/>
		</g>
		<g>
			<path d="M482.949,460.377c-8.325-0.121-17.35-1.767-26.87-4.981c-56.278-19.006-115.391-87.194-114.098-176.136
				c2.33-160.229,211.103-226.522,317.087-224.981c3.909,0.057,7.258,2.81,8.07,6.631c0.811,3.823-1.126,7.7-4.674,9.341
				C518.679,136.82,526.006,254.88,532.471,359.043c0.856,13.806,1.667,26.849,2.141,39.746c0.672,17.88-2.993,32.356-10.902,43.018
				C514.465,454.305,500.23,460.629,482.949,460.377z M622,72.921c-105.182,11.441-261.353,74.626-263.271,206.583
				c-1.178,81.013,52.039,142.912,102.708,160.024c21.94,7.399,39.724,4.599,48.814-7.689c5.586-7.535,8.15-18.442,7.62-32.426
				c-0.463-12.694-1.266-25.636-2.117-39.334C509.8,264.165,502.512,146.639,622,72.921z"/>
		</g>
		<g>
			<path d="M733.867,654.053c-34.326-0.499-58.233-13.25-73.092-38.982c-2.314-4.005-0.94-9.125,3.065-11.439
				c3.999-2.311,9.129-0.944,11.439,3.065c11.821,20.47,30.515,30.197,58.832,30.608c27.012,0.393,49.083-9.965,62.145-29.167
				c2.601-3.823,7.811-4.823,11.634-2.213c3.823,2.601,4.817,7.808,2.213,11.634C794.007,641.223,766.22,654.524,733.867,654.053z"
				/>
		</g>
	</g>
	<g>
		<path fill="#FFFFFF" d="M852.636,310.506c7.034,0.102,12.645,5.879,12.543,12.913c-0.102,7-5.879,12.612-12.913,12.51
			c-7-0.102-12.612-5.879-12.51-12.879C839.859,316.015,845.636,310.404,852.636,310.506z"/>
	</g>
	<g>
		<path fill="#FFFFFF" d="M648.517,307.538c7.034,0.102,12.645,5.879,12.543,12.913c-0.102,7-5.879,12.612-12.913,12.51
			c-7.034-0.102-12.645-5.879-12.544-12.88C635.706,313.047,641.483,307.435,648.517,307.538z"/>
	</g>
	<g>
		<path d="M852.845,296.136c22.341,0.325,40.165,18.709,39.841,41.017c-0.325,22.341-18.675,40.166-41.017,39.841
			c-22.308-0.324-40.132-18.675-39.807-41.016C812.187,313.67,830.537,295.812,852.845,296.136z M865.179,323.419
			c0.102-7.034-5.509-12.811-12.543-12.913c-7-0.102-12.777,5.51-12.88,12.544c-0.102,7.001,5.51,12.777,12.51,12.879
			C859.301,336.031,865.078,330.42,865.179,323.419z"/>
	</g>
	<g>
		<path d="M643.802,293.097c22.308,0.324,40.165,18.709,39.841,41.017c-0.325,22.341-18.709,40.165-41.017,39.841
			c-22.341-0.325-40.166-18.675-39.841-41.017C603.11,310.63,621.46,292.772,643.802,293.097z M661.06,320.451
			c0.102-7.034-5.509-12.811-12.543-12.913c-7.034-0.102-12.811,5.509-12.913,12.543c-0.102,7,5.51,12.777,12.544,12.88
			C655.181,333.063,660.958,327.451,661.06,320.451z"/>
	</g>
</g>
</svg>
