<?xml version="1.0" encoding="utf-8"?>
<!-- Designed by Vexels.com - 2020 All Rights Reserved - https://vexels.com/terms-and-conditions/  -->
<svg version="1.1" id="Layer_1" xmlns="http://www.w3.org/2000/svg" xmlns:xlink="http://www.w3.org/1999/xlink" x="0px" y="0px"
	 viewBox="0 0 1200 1200" enable-background="new 0 0 1200 1200" xml:space="preserve">
<g>
	<path fill="#3D403C" d="M1075.696,288.766c-5.482-40.328-34.244-88.031-79.395-130.532
		C926.855,92.869,836.607,56.617,754.404,60.881c-53.096-14.438-110.513-14.51-163.654-0.207
		c-80.928-2.693-169.12,33.424-237.262,97.559c-50.359,47.404-80.427,101.308-80.427,144.197c0,10.314,1.726,28.033,5.507,49.132
		c1.043,13.496,3.96,27.847,9.613,42.65c13.196,48.279,35.78,100.19,70.614,122.227c2.564,2.735,5.469,4.392,9.262,4.988
		c6.222,2.803,12.791,4.696,19.737,5.483c4.709,0.533,9.19,0.8,13.452,0.8c5.377,0,10.372-0.467,15.065-1.321
		c1.316,2.212,2.643,4.409,3.994,6.575c-55.621,15.213-141.134,67.174-169.835,85.208c-14.481,1.069-26.648-0.313-36.772-4.309
		c-5.065-1.999-9.62-4.653-13.714-7.963c-4.458-3.605-8.376-7.981-11.783-13.178c-9.441-14.409-26.804-20.142-43.208-14.25
		c-16.584,5.958-26.444,21.6-24.537,38.926c3.776,34.273,17.439,64.036,36.899,84.263c10.606,11.025,22.935,19.163,36.365,23.638
		c-0.072,0.364-0.156,0.724-0.225,1.088c-3.461,17.904-5.587,36.138-6.195,54.408c-0.658,19.505,1.205,38.1,5.535,55.271
		c10.93,43.352,7.825,86.811,3.001,135.055c-1.145,11.48-3.264,23.112-5.507,35.427c-4.545,24.944-9.242,50.738-5.694,76.544
		c0.339,2.478,0.371,7.869,0.403,13.085c0.024,4.086,0.048,8.488,0.2,12.801c0.335,9.579,4.23,18.19,10.427,24.566l-0.015,1.672
		l1.697-0.086c6.082,5.52,14.015,9.061,22.863,9.571c34.29,1.979,94.493,5.299,112.438,5.299c2.969,0,12.003,0,18.116-6.82
		c6.564-7.318,5.515-16.963,4.298-28.128c-0.523-4.784-1.113-10.207-1.333-16.405c-0.926-26.221-13.476-41.205-23.843-49.158
		c-4.848-3.72-10.057-6.562-15.303-8.68c0.929-28.39,13.659-56.558,28.769-82.317c11.664,32.003,36.343,69.581,36.706,70.128
		c35.04,53.012,52.426,53.012,58.14,53.012c20.778,0,54.074-1.704,73.97-2.725c7.283-0.371,12.977-0.662,15.934-0.766
		c3.152-0.108,10.994-1.52,15.674-12.219c4.972-11.369,5.898-34.441-7.618-50.123c-5.707-6.627-15.154-13.293-30.247-14.313
		c-9.831-13.951-14.298-43.496-15.036-60.645c17.185,4.114,36.402,6.757,58.048,7.54c0.152,0.004,0.299,0.008,0.451,0.008
		c1.146,0,2.238-0.209,3.294-0.506c12.302,36.979,24.787,81.135,29.288,114.237c2.626,19.298,12.857,42.406,19.629,57.701
		c1.185,2.674,2.251,5.076,3.125,7.131c3.292,7.729,8.057,9.697,47.398,11.285c11.955,0.479,24.617,0.722,36.504,0.722
		c10.319,0,20.052-0.183,28.232-0.551c25.156-1.133,36.189-3.212,39.405-13.164c6.556-20.279-1.345-45.538-20.622-65.917
		c-5.306-5.609-11.092-10.41-17.199-14.449c-3.619-25.106-9.607-76.884-9.164-114.434c9.051,33.639,39.78,80.451,40.185,81.062
		c35.04,53.012,52.426,53.012,58.14,53.012c20.774,0,54.074-1.704,73.966-2.725c7.282-0.371,12.977-0.662,15.93-0.766
		c3.152-0.108,10.994-1.516,15.674-12.211c4.976-11.369,5.906-34.441-7.61-50.127c-5.638-6.547-14.938-13.119-29.718-14.261
		c-12.25-23.236-19.041-124.567-16.168-140.547c1.44-4.637-0.037-9.556-3.478-12.683c36.746-64.393,51.347-155.035,38.202-244.522
		c-0.198-1.346-0.656-2.579-1.241-3.729c16.789-16.731,31.762-35.46,44.505-55.947c3.476,0.431,7.07,0.712,10.894,0.712
		c4.262,0,8.747-0.267,13.452-0.8c72.031-8.155,104.476-133.394,112.609-197.288
		C1080.346,314.917,1082.131,303.182,1075.696,288.766z"/>
	<g>
		<path fill="#DFAB79" d="M673.451,650.161l0.001-0.074c-55.646-6.376-107.77-28.863-136.032-51.033
			c-28.604-17.315-47.765-48.729-47.765-84.538c0-5.547,3.708-10.18,8.765-11.692c0.166-21.977,5.356-35.296,13.924-43.619
			c-10.725-4.306-27.762-9.864-41.114-8.219c2.456,51.983,8.281,98.49,11.587,121.914c50.045,50.284,115.207,77.281,189.38,77.281
			C672.616,650.182,673.033,650.163,673.451,650.161z"/>
		<path fill="#DFAB79" d="M886.196,476.025c-1.992-8.94-3.122-19.022-3.507-30.238c-8.106,4.894-22.978,9.713-41.23,14.249
			c8.19,8.516,13.068,21.966,13.068,43.843c0,0.588,0.025,1.068,0.051,1.541c2.505,2.245,4.11,5.47,4.11,9.097
			c0,25.215-9.511,48.241-25.119,65.711c-16.34,26.534-82.115,61.537-153.806,69.828c79.783-2.13,155.109-37.818,207.591-96.607
			C887.839,539.267,888.327,510.391,886.196,476.025z"/>
		<circle fill="#DFAB79" cx="581.926" cy="300.336" r="23.481"/>
		<circle fill="#DFAB79" cx="777.822" cy="300.336" r="23.481"/>
		<path fill="#DFAB79" d="M223.063,866.952c3.612,34.588,0.901,69.272-2.831,106.609c-1.245,12.462-3.555,25.132-5.786,37.382
			c-1.079,5.923-2.162,11.898-3.132,17.879c10.35,8.947,28.405,17.27,59.822,18.483c0.629-4.948,4.224-9.219,9.367-10.405
			c2.873-0.663,6.229-1.004,9.878-0.994c2.143-32.101,16.171-62.968,32.015-90.044C267.767,920.344,254.537,881.329,223.063,866.952
			z"/>
		<path fill="#DFAB79" d="M573.584,933.242c11.778,34.515,23.784,75.607,30.066,109.61c8.682,3.637,20.982,2.411,36.953,1.151
			c0.327-5.125,3.821-9.702,9.06-11.081c14.154-3.723,28.63-3.562,42.414,0.072c-1.088-8.485-2.353-19.153-3.53-30.963
			C649.737,998.172,597.662,944.94,573.584,933.242z"/>
	</g>
	<g>
		<path fill="#C78C67" d="M466.83,451.857c-1.605,26.238-7.695,45.781-20.068,58.737c-2.309,2.418-4.839,4.519-7.512,6.421
			c12.799,20.987,27.4,39.642,43.566,55.886c-3.306-23.425-9.131-69.932-11.587-121.914
			C469.708,451.174,468.24,451.466,466.83,451.857z"/>
		<path fill="#C78C67" d="M913.652,519.064c-3.877-2.354-7.442-5.137-10.626-8.47c-8.212-8.599-13.617-20.15-16.83-34.569
			c2.131,34.366,1.643,63.242,1.158,77.424C896.919,542.734,905.717,531.249,913.652,519.064z"/>
		<path fill="#C78C67" d="M471.278,978.764c-31.174-11.766-74.225-45.962-104.16-57.591c-0.21,0.318-0.413,0.624-0.625,0.944
			c-1.325,1.997-2.673,4.032-4.026,6.082c-0.02,0.029-0.038,0.057-0.057,0.086c-0.095,1.09-0.283,2.181-0.685,3.25
			c-1.325,10.064,18.46,55.646,45.814,93.786c0.932,1.299,1.832,2.519,2.722,3.72c17.382,2.545,45.155-2.219,63.059-6.026
			c-0.697-1.06-1.287-2.211-1.636-3.503c-1.72-6.358,1.91-12.863,8.124-14.839c-1.796-3.885-3.387-8.04-4.792-12.347
			C473.577,987.92,472.332,983.365,471.278,978.764z"/>
		<path fill="#C78C67" d="M736.432,934.948c6.593,16.941,18.8,41,33.98,63.786c22.956,14.594,56.169,10.873,72.656,7.731
			c-0.883-1.193-1.584-2.55-1.994-4.069c-1.768-6.536,2.095-13.264,8.631-15.032c0.439-0.119,0.846-0.197,1.279-0.309
			c-1.951-5.515-3.697-11.87-5.267-18.748C819.874,963.318,761.987,950.841,736.432,934.948z"/>
	</g>
	<g>
		<path fill="#E0E0E0" d="M486.715,1028.141c-5.241,1.418-10.565-0.825-13.396-5.128c-17.904,3.808-45.677,8.571-63.059,6.026
			c16.185,21.799,25.758,27.698,28.167,28.088c19.916-0.012,52.825-1.696,72.486-2.705c4.338-0.219,8.124-0.415,11.129-0.559
			c1.117-4.896,1.241-14.481-3.735-21.161C511.587,1023.692,497.421,1025.244,486.715,1028.141z"/>
		<path fill="#E0E0E0" d="M887.69,1015.587c-6.712-9.01-20.874-7.45-31.584-4.561c-5.01,1.354-10.124-0.623-13.038-4.562
			c-16.487,3.142-49.7,6.863-72.656-7.731c2.124,3.188,4.284,6.359,6.516,9.472c17.845,24.884,28.348,31.397,30.89,31.808
			c19.916-0.012,52.821-1.696,72.482-2.706c4.338-0.219,8.124-0.415,11.133-0.559C892.547,1031.852,892.67,1022.267,887.69,1015.587
			z"/>
		<path fill="#E0E0E0" d="M766.418,888.471c6.281-3.318,12.338-7.131,18.18-11.411c2.423-1.836,4.897-3.761,7.409-5.757
			c10.211-8.478,19.697-18.496,28.405-30.076c42.773-56.873,61.978-147.44,51.252-238.772
			c-55.406,45.841-125.921,72.244-199.467,72.244c-67.742,0-128.557-20.594-178.545-59.392
			c16.461,23.373,43.88,55.671,76.526,68.107c46.704,17.792,130.592,39.844,216.922,12.525c21.017-6.651,42.509,9.085,42.795,31.128
			C830.496,773.168,821.025,843.126,766.418,888.471z"/>
	</g>
	<g>
		<path fill="#302F2C" d="M466.467,933.565c-32.924-11.897-57.188-29.809-76.604-49.934c-5.021,10.723-13.077,22.961-22.746,37.541
			c29.935,11.629,72.986,45.826,104.16,57.591C467.496,962.265,466.093,945.313,466.467,933.565z"/>
		<path fill="#302F2C" d="M455.418,323.596c8.531,53.308,13.394,95.893,11.413,128.261c1.41-0.391,2.877-0.683,4.399-0.87
			c-2.829-59.884-1.179-126.952,13.99-174.132c24.63-76.611,46.644-144.399,92.162-182.91
			C516.491,123.629,436.611,206.028,455.418,323.596z"/>
		<path fill="#302F2C" d="M757.56,87.603c30.669,25.622,55.419,57.382,71.303,94.88c16.778,39.607,22.854,81.839,30.771,123.819
			c7.666,40.641,15.331,81.283,22.997,121.924c0.753-28.642,5.145-63.42,11.74-104.63
			C914.755,196.165,819.206,110.049,757.56,87.603z"/>
		<path fill="#302F2C" d="M1050.457,286.297c-3.974,46.889-26.638,115.146-49.698,145.139
			c-26.56,34.543-67.314,31.325-71.287-34.054c-2.695-44.343,1.757-111.262-15.711-166.645c7.937,29.724,10.336,62.228,4.815,96.733
			c-11.668,72.915-19.477,143.513,2.179,166.19c7.69,8.045,20.287,10.96,38.479,8.889c61.009-6.905,92.976-151.394,92.976-200.119
			C1052.211,297.304,1051.572,291.891,1050.457,286.297z"/>
		<path fill="#302F2C" d="M358.794,516.44c2.564,2.735,5.469,4.392,9.262,4.988C364.878,519.996,361.789,518.334,358.794,516.44z"/>
		<path fill="#302F2C" d="M288.18,394.213c-4.071-14.894-7.245-29.433-9.613-42.65C279.611,365.058,282.528,379.409,288.18,394.213z
			"/>
		<path fill="#302F2C" d="M390.554,502.549c18.196,2.071,30.794-0.844,38.479-8.889c21.656-22.677,13.847-93.276,2.179-166.19
			c-7.75-48.436,0.064-92.945,16.995-131.311c-5.923,8.702-11.033,17.99-14.447,27.561
			c-20.207,56.646-15.182,127.438-17.991,173.662c-3.972,65.379-44.726,68.597-71.287,34.054
			c-19.641-25.544-38.988-78.842-46.754-123.061C300.044,361.891,331.843,495.904,390.554,502.549z"/>
		<path fill="#302F2C" d="M834.819,862.557c-27.323,33.534-62.099,55.26-101.523,63.547c0.741,2.368,1.636,4.953,2.72,7.792
			c0.13,0.34,0.28,0.705,0.415,1.052c25.555,15.894,83.442,28.37,109.285,33.359c-0.603-2.64-1.178-5.355-1.726-8.141
			C837.78,928.619,835.003,888.765,834.819,862.557z"/>
		<path fill="#302F2C" d="M732.992,901.112c8.728-2.109,17.115-5.017,25.184-8.638C749.395,895.487,740.695,898.47,732.992,901.112z
			"/>
		<path fill="#302F2C" d="M153.407,649.74c9.795,24.982,26.362,43.995,45.691,51.49c4.017-16.212,9.518-34.812,18.566-50.66
			C187.071,663.733,166.599,658.856,153.407,649.74z"/>
	</g>
	<g>
		<path fill="#FFFFFF" d="M759.941,613.265c-33.386,0-62.933-16.668-80.815-42.102c-1.77-2.517-3.423-5.119-4.955-7.8
			c-0.117,0.204-0.233,0.407-0.351,0.61c-17.113,29.441-48.98,49.292-85.419,49.292c-18.641,0-36.089-5.196-50.981-14.21
			c28.262,22.17,80.386,44.657,136.032,51.033l-0.001,0.074c0.201-0.001,0.4-0.009,0.601-0.01c1.806-0.012,3.61-0.044,5.412-0.09
			c0.1-0.002,0.2-0.002,0.299-0.005c71.692-8.291,137.466-43.294,153.806-69.828C815.473,600.483,789.176,613.265,759.941,613.265z"
			/>
		<path fill="#FFFFFF" d="M854.527,503.878c0-21.876-4.877-35.327-13.068-43.843c-24.318-25.286-77.908-6.973-120.281-35.77
			c-23.264-9.857-46.418-146.063-13.729-173.985c32.689-27.922,67.422-44.267,70.145-69.465
			c2.701-24.98-48.158-72.688-100.451-73.512l-0.001-0.039c-0.227,0-0.456,0.017-0.684,0.019c-0.228-0.002-0.456-0.019-0.684-0.019
			v0.039c-52.294,0.825-103.153,48.533-100.452,73.512c2.723,25.198,37.456,41.543,70.145,69.465
			c32.689,27.922,9.535,164.128-13.729,173.985c-41.879,28.462-94.69,10.941-119.394,34.941
			c-8.567,8.323-13.758,21.642-13.924,43.619c1.113-0.333,2.271-0.567,3.494-0.567c6.772,0,12.259,5.489,12.259,12.258
			c0,40.932,33.3,74.232,74.229,74.232c37.299,0,68.171-27.677,73.376-63.555c-0.041-0.376-0.08-0.752-0.117-1.129L624,513.303
			c-13.553-3.872-23.545-14.899-26.42-28.268c-0.552-2.565-0.87-5.207-0.87-7.911v-0.357c0-20.781,17.879-40.793,37.627-47.261
			c11.149-3.652,25.606-5.785,40.085-5.982c1.36-0.018,2.716-0.006,4.074,0.01c13.45,0.161,26.654,2.02,36.956,5.972
			c19.402,7.442,37.625,26.48,37.625,47.261c0,0.097-0.011,0.192-0.012,0.29c-0.129,16.846-11.438,31.572-27.714,36.011
			l-38.633,10.536c-0.049,0.53-0.094,1.06-0.152,1.588c5.204,35.878,36.076,63.555,73.375,63.555c40.93,0,74.229-33.3,74.229-74.232
			c0-6.77,5.487-12.258,12.258-12.258c3.143,0,5.98,1.217,8.148,3.161C854.552,504.946,854.527,504.466,854.527,503.878z"/>
		<path fill="#FFFFFF" d="M787.1,695.94c-86.33,27.319-170.219,5.266-216.922-12.525c-32.646-12.436-60.065-44.734-76.526-68.107
			c-2.561-1.988-5.094-4.023-7.597-6.106c11.702,83.461,151.979,160.167,210.939,207.354c42.021,33.631,28.696,63.573,16.178,79.068
			c-0.506,1.528-0.948,3.249-1.346,5.097c3.421-2.845,8.243-3.764,12.617-1.893c1.739,0.74,3.18,1.862,4.352,3.19
			c1.402-0.297,2.812-0.572,4.198-0.907c7.702-2.641,16.403-5.625,25.184-8.638c2.784-1.25,5.537-2.574,8.241-4.003
			c54.607-45.345,64.078-115.303,63.477-161.403C829.609,705.024,808.118,689.289,787.1,695.94z"/>
		<path fill="#FFFFFF" d="M195.648,1135.216l1.697-0.086c-0.571-0.518-1.144-1.033-1.682-1.585L195.648,1135.216z"/>
		<path fill="#FFFFFF" d="M329.225,1099.517c-0.475-13.392-5.271-23.679-14.262-30.578c-11.121-8.531-24.545-9.158-28.954-8.152
			c-6.56,1.528-13.176-2.59-14.697-9.19c-0.335-1.452-0.355-2.895-0.178-4.292c-31.417-1.213-49.472-9.536-59.822-18.483
			c-2.805,17.293-4.632,34.64-2.39,50.935c0.559,4.07,0.591,9.729,0.63,16.277c0.02,3.863,0.044,8.021,0.184,12.087
			c0.231,6.52,5.339,11.728,11.883,12.103c56.149,3.24,95.901,5.144,109.8,5.255c-0.136-2.271-0.455-5.212-0.734-7.769
			C330.147,1112.762,329.477,1106.608,329.225,1099.517z"/>
		<path fill="#FFFFFF" d="M655.904,1056.633c-6.532,1.732-13.252-2.187-14.976-8.735c-0.344-1.309-0.407-2.615-0.325-3.895
			c-15.971,1.261-28.271,2.487-36.953-1.151c1.02,5.521,1.906,10.877,2.598,15.963c2.155,15.85,11.544,37.051,17.753,51.077
			c0.303,0.682,0.599,1.349,0.882,1.995c20.004,2.761,89.082,3.659,109.03,0.615c0.814-10.914-5.203-24.808-16.097-36.329
			C700.816,1058.213,677.683,1050.906,655.904,1056.633z"/>
		<path fill="#FFFFFF" d="M804.434,382.248c8.703,0,15.758-7.055,15.758-15.758c0-8.703-7.055-15.759-15.758-15.759
			s-15.759,7.055-15.759,15.759C788.675,375.193,795.731,382.248,804.434,382.248z"/>
		<path fill="#FFFFFF" d="M551.461,382.248c8.703,0,15.758-7.055,15.758-15.758c0-8.703-7.055-15.759-15.758-15.759
			s-15.758,7.055-15.758,15.759C535.703,375.193,542.758,382.248,551.461,382.248z"/>
	</g>
	<g>
		<path fill="#1F1B1B" d="M545.354,433.125c27.665,0,50.094-22.427,50.094-50.093s-22.428-50.093-50.094-50.093
			c-27.665,0-50.092,22.427-50.092,50.093S517.688,433.125,545.354,433.125z M551.461,350.731c8.703,0,15.758,7.055,15.758,15.759
			c0,8.703-7.055,15.758-15.758,15.758s-15.758-7.055-15.758-15.758C535.703,357.786,542.758,350.731,551.461,350.731z"/>
		<path fill="#1F1B1B" d="M804.434,433.125c27.665,0,50.093-22.427,50.093-50.093s-22.427-50.093-50.093-50.093
			s-50.094,22.427-50.094,50.093S776.769,433.125,804.434,433.125z M804.434,350.731c8.703,0,15.758,7.055,15.758,15.759
			c0,8.703-7.055,15.758-15.758,15.758s-15.759-7.055-15.759-15.758C788.675,357.786,795.731,350.731,804.434,350.731z"/>
		<path fill="#1F1B1B" d="M596.71,476.767v0.357c0,2.704,0.318,5.346,0.87,7.911c2.875,13.369,12.867,24.396,26.42,28.268
			l37.66,10.76c0.037,0.377,0.076,0.753,0.117,1.129c-5.204,35.878-36.076,63.555-73.376,63.555c-40.93,0-74.229-33.3-74.229-74.232
			c0-6.77-5.487-12.258-12.259-12.258c-1.223,0-2.38,0.233-3.494,0.567c-5.057,1.512-8.765,6.145-8.765,11.692
			c0,35.809,19.161,67.223,47.765,84.538c14.892,9.014,32.34,14.21,50.981,14.21c36.438,0,68.306-19.851,85.419-49.292
			c0.118-0.203,0.234-0.406,0.351-0.61c1.532,2.681,3.185,5.283,4.955,7.8c17.882,25.434,47.429,42.102,80.815,42.102
			c29.235,0,55.531-12.781,73.628-33.037c15.607-17.47,25.119-40.496,25.119-65.711c0-3.628-1.605-6.852-4.11-9.097
			c-2.169-1.944-5.005-3.161-8.148-3.161c-6.772,0-12.258,5.489-12.258,12.258c0,40.932-33.3,74.232-74.229,74.232
			c-37.299,0-68.171-27.677-73.375-63.555c0.058-0.528,0.103-1.058,0.152-1.588l38.633-10.536
			c16.277-4.439,27.586-19.165,27.714-36.011c0.001-0.097,0.012-0.192,0.012-0.29c0-20.781-18.223-39.819-37.625-47.261
			c-10.302-3.952-23.506-5.811-36.956-5.972c-1.358-0.016-2.714-0.028-4.074-0.01c-14.478,0.197-28.935,2.33-40.085,5.982
			C614.589,435.975,596.71,455.987,596.71,476.767z"/>
		<path fill="#1F1B1B" d="M1075.696,288.766c-5.482-40.328-34.244-88.031-79.395-130.532
			C926.855,92.869,836.607,56.617,754.404,60.881c-53.096-14.438-110.513-14.51-163.654-0.207
			c-80.928-2.693-169.12,33.424-237.262,97.559c-50.359,47.404-80.427,101.308-80.427,144.197c0,10.314,1.726,28.033,5.507,49.132
			c2.368,13.217,5.542,27.756,9.613,42.65c13.196,48.279,35.78,100.19,70.614,122.227c2.995,1.894,6.083,3.556,9.262,4.988
			c6.222,2.803,12.791,4.696,19.737,5.483c4.709,0.533,9.19,0.8,13.452,0.8c5.377,0,10.372-0.467,15.065-1.321
			c1.316,2.212,2.643,4.409,3.994,6.575c-55.621,15.213-141.134,67.174-169.835,85.208c-14.481,1.069-26.648-0.313-36.772-4.309
			c-5.065-1.999-9.62-4.653-13.714-7.963c-4.458-3.605-8.376-7.981-11.783-13.178c-9.441-14.409-26.804-20.142-43.208-14.25
			c-16.584,5.958-26.444,21.6-24.537,38.926c3.776,34.273,17.439,64.036,36.899,84.263c10.606,11.025,22.935,19.163,36.365,23.638
			c-0.072,0.364-0.156,0.724-0.225,1.088c-3.461,17.904-5.587,36.138-6.195,54.408c-0.658,19.505,1.205,38.1,5.535,55.271
			c10.93,43.352,7.825,86.811,3.001,135.055c-1.145,11.48-3.264,23.112-5.507,35.427c-4.545,24.944-9.242,50.738-5.694,76.544
			c0.339,2.478,0.371,7.869,0.403,13.085c0.024,4.086,0.048,8.488,0.2,12.801c0.335,9.579,4.23,18.19,10.427,24.566
			c0.538,0.553,1.111,1.067,1.682,1.585c6.082,5.52,14.015,9.061,22.863,9.571c34.29,1.979,94.493,5.299,112.438,5.299
			c2.969,0,12.003,0,18.116-6.82c6.564-7.318,5.515-16.963,4.298-28.128c-0.523-4.784-1.113-10.207-1.333-16.405
			c-0.926-26.221-13.476-41.205-23.843-49.158c-4.848-3.72-10.057-6.562-15.303-8.68c0.929-28.39,13.659-56.558,28.769-82.317
			c11.664,32.003,36.343,69.581,36.706,70.128c35.04,53.012,52.426,53.012,58.14,53.012c20.778,0,54.074-1.704,73.97-2.725
			c7.283-0.371,12.977-0.662,15.934-0.766c3.152-0.108,10.994-1.52,15.674-12.219c4.972-11.369,5.898-34.441-7.618-50.123
			c-5.707-6.627-15.154-13.293-30.247-14.313c-9.831-13.951-14.298-43.496-15.036-60.645c17.185,4.114,36.402,6.757,58.048,7.54
			c0.152,0.004,0.299,0.008,0.451,0.008c1.146,0,2.238-0.209,3.294-0.506c12.302,36.979,24.787,81.135,29.288,114.237
			c2.626,19.298,12.857,42.406,19.629,57.701c1.185,2.674,2.251,5.076,3.125,7.131c3.292,7.729,8.057,9.697,47.398,11.285
			c11.955,0.479,24.617,0.722,36.504,0.722c10.319,0,20.052-0.183,28.232-0.551c25.156-1.133,36.189-3.212,39.405-13.164
			c6.556-20.279-1.345-45.538-20.622-65.917c-5.306-5.609-11.092-10.41-17.199-14.449c-3.619-25.106-9.607-76.884-9.164-114.434
			c9.051,33.639,39.78,80.451,40.185,81.062c35.04,53.012,52.426,53.012,58.14,53.012c20.774,0,54.074-1.704,73.966-2.725
			c7.282-0.371,12.977-0.662,15.93-0.766c3.152-0.108,10.994-1.516,15.674-12.211c4.976-11.369,5.906-34.441-7.61-50.127
			c-5.638-6.547-14.938-13.119-29.718-14.261c-12.25-23.236-19.041-124.567-16.168-140.547c1.44-4.637-0.037-9.556-3.478-12.683
			c36.746-64.393,51.347-155.035,38.202-244.522c-0.198-1.346-0.656-2.579-1.241-3.729c16.789-16.731,31.762-35.46,44.505-55.947
			c3.476,0.431,7.07,0.712,10.894,0.712c4.262,0,8.747-0.267,13.452-0.8c72.031-8.155,104.476-133.394,112.609-197.288
			c1.44-11.313,2.123-20.717,2.123-27.192C1076.728,297.995,1076.328,293.417,1075.696,288.766z M959.234,502.549
			c-18.192,2.071-30.79-0.844-38.479-8.889c-21.656-22.677-13.847-93.276-2.179-166.19c5.521-34.506,3.122-67.01-4.815-96.733
			c-16.447-61.598-56.796-111.195-100.567-141.492c58.511,10.658,117.737,41.125,166.304,86.841
			c38.414,36.158,64.3,76.835,70.959,110.211c1.115,5.594,1.754,11.007,1.754,16.133
			C1052.211,351.155,1020.243,495.644,959.234,502.549z M849.706,987.363c-6.536,1.768-10.399,8.496-8.631,15.032
			c0.41,1.52,1.111,2.876,1.994,4.069c2.914,3.939,8.028,5.916,13.038,4.562c10.71-2.889,24.872-4.449,31.584,4.561
			c4.98,6.68,4.856,16.265,3.743,21.161c-3.009,0.144-6.796,0.339-11.133,0.559c-19.661,1.01-52.566,2.694-72.482,2.706
			c-2.542-0.411-13.045-6.923-30.89-31.808c-2.233-3.112-4.392-6.284-6.516-9.472c-15.18-22.786-27.387-46.845-33.98-63.786
			c-0.135-0.347-0.285-0.712-0.415-1.052c-1.084-2.838-1.979-5.424-2.72-7.792c39.424-8.287,74.2-30.013,101.523-63.547
			c0.184,26.208,2.961,66.062,9.172,97.609c0.548,2.786,1.123,5.501,1.726,8.141c1.57,6.877,3.316,13.233,5.267,18.748
			C850.552,987.166,850.145,987.244,849.706,987.363z M573.584,933.242c-11.816-34.625-23.383-62.608-28.653-70.048
			c-3.919-5.523-11.572-6.836-17.091-2.917c-5.523,3.915-6.832,11.564-2.917,17.091c3.202,4.519,10.716,22.322,19.339,46.232
			c-22.995-1.221-42.83-4.708-60.093-9.985c-0.021-0.008-0.038-0.021-0.059-0.029c-0.223-0.086-0.453-0.113-0.678-0.185
			c-56.385-17.469-85.528-53.863-110.271-90.736c-3.775-5.619-11.381-7.123-17.011-3.348c-5.622,3.771-7.119,11.389-3.348,17.011
			c5.683,8.469,11.692,17.037,18.246,25.469c-0.035,0.377-0.114,0.741-0.114,1.127c0,8.14-12.646,27.207-24.872,45.642
			c-7.476,11.275-15.782,23.824-23.665,37.298c-15.844,27.076-29.872,57.943-32.015,90.044c-3.649-0.01-7.005,0.331-9.878,0.994
			c-5.144,1.186-8.738,5.457-9.367,10.405c-0.178,1.397-0.158,2.84,0.178,4.292c1.52,6.6,8.136,10.718,14.697,9.19
			c4.409-1.006,17.833-0.379,28.954,8.152c8.99,6.899,13.787,17.187,14.262,30.578c0.251,7.091,0.922,13.244,1.46,18.192
			c0.279,2.558,0.599,5.499,0.734,7.769c-13.899-0.112-53.651-2.015-109.8-5.255c-6.544-0.375-11.652-5.583-11.883-12.103
			c-0.14-4.066-0.164-8.224-0.184-12.087c-0.04-6.548-0.072-12.207-0.63-16.277c-2.242-16.295-0.415-33.642,2.39-50.935
			c0.971-5.981,2.053-11.956,3.132-17.879c2.231-12.251,4.541-24.92,5.786-37.382c3.732-37.337,6.443-72.021,2.831-106.609
			c-1.281-12.266-3.339-24.522-6.454-36.878c-3.771-14.944-5.387-31.245-4.808-48.459c0.702-21.061,3.472-42.091,8.236-62.506
			c5.706-24.477,14.338-61.464,35.004-74.792c40.969-26.418,123.351-74.648,172.226-87.845c2.516-0.68,4.623-2.104,6.179-3.961
			c15.643,21.641,33.257,40.588,52.61,56.691c2.503,2.083,5.036,4.118,7.597,6.106c49.988,38.797,110.803,59.392,178.545,59.392
			c73.546,0,144.062-26.403,199.467-72.244c10.726,91.332-8.479,181.898-51.252,238.772c-8.708,11.58-18.193,21.597-28.405,30.076
			c-2.512,1.997-4.986,3.922-7.409,5.757c-5.842,4.279-11.899,8.093-18.18,11.411c-2.705,1.429-5.457,2.753-8.241,4.003
			c-8.07,3.622-16.456,6.529-25.184,8.638c-1.386,0.335-2.796,0.61-4.198,0.907c-1.171-1.329-2.613-2.45-4.352-3.19
			c-4.373-1.872-9.196-0.952-12.617,1.893c0.398-1.848,0.84-3.569,1.346-5.097c0.015-0.045,0.027-0.099,0.042-0.143
			c2.151-6.421-1.309-13.368-7.729-15.519c-6.44-2.147-13.368,1.313-15.519,7.729c-8.15,24.321-5.297,75.401-1.419,114.34
			c1.176,11.81,2.441,22.478,3.53,30.963c-13.784-3.634-28.26-3.795-42.414-0.072c-5.239,1.379-8.733,5.956-9.06,11.081
			c-0.082,1.28-0.019,2.586,0.325,3.895c1.724,6.548,8.444,10.467,14.976,8.735c21.78-5.726,44.912,1.58,61.911,19.541
			c10.894,11.52,16.911,25.415,16.097,36.329c-19.948,3.045-89.026,2.147-109.03-0.615c-0.283-0.646-0.579-1.313-0.882-1.995
			c-6.209-14.026-15.598-35.227-17.753-51.077c-0.691-5.086-1.578-10.442-2.598-15.963
			C597.367,1008.849,585.361,967.757,573.584,933.242z M471.278,978.764c1.054,4.601,2.299,9.156,3.737,13.56
			c1.406,4.307,2.997,8.462,4.792,12.347c-6.214,1.976-9.844,8.481-8.124,14.839c0.349,1.292,0.939,2.443,1.636,3.503
			c2.831,4.303,8.154,6.546,13.396,5.128c10.706-2.897,24.872-4.449,31.592,4.561c4.976,6.68,4.852,16.265,3.735,21.161
			c-3.005,0.144-6.792,0.339-11.129,0.559c-19.661,1.01-52.57,2.693-72.486,2.705c-2.409-0.39-11.982-6.289-28.167-28.088
			c-0.891-1.201-1.791-2.421-2.722-3.72c-27.354-38.14-47.139-83.723-45.814-93.786c0.402-1.069,0.591-2.16,0.685-3.25
			c0.019-0.029,0.037-0.057,0.057-0.086c1.354-2.05,2.702-4.084,4.026-6.082c0.212-0.32,0.415-0.626,0.625-0.944
			c9.67-14.581,17.725-26.818,22.746-37.541c19.415,20.125,43.68,38.036,76.604,49.934
			C466.093,945.313,467.496,962.265,471.278,978.764z M297.729,308.375c-0.091-2.095-0.152-4.109-0.152-5.945
			c0-35.714,27.861-84.126,72.713-126.344c48.571-45.72,107.789-76.187,166.304-86.843c-35.243,24.395-68.262,61.311-88.387,106.916
			c-16.931,38.366-24.745,82.875-16.995,131.311c11.668,72.915,19.477,143.513-2.179,166.19c-7.686,8.045-20.283,10.96-38.479,8.889
			C331.843,495.904,300.044,361.891,297.729,308.375z M749.65,84.975c0.011,0.003,0.021,0.009,0.032,0.012
			c2.546,0.734,5.192,1.637,7.878,2.615c61.646,22.446,157.195,108.563,136.81,235.993c-6.595,41.21-10.987,75.988-11.74,104.63
			c-0.162,6.147-0.133,11.982,0.059,17.561c0.384,11.217,1.514,21.298,3.507,30.238c3.212,14.42,8.617,25.97,16.83,34.569
			c3.184,3.333,6.75,6.116,10.626,8.47c-7.935,12.185-16.733,23.671-26.298,34.385c-52.482,58.789-127.808,94.477-207.591,96.607
			c-0.1,0.003-0.2,0.003-0.299,0.005c-1.802,0.046-3.606,0.078-5.412,0.09c-0.201,0.001-0.4,0.009-0.601,0.01
			c-0.419,0.002-0.836,0.021-1.255,0.021c-74.173,0-139.335-26.997-189.38-77.281c-16.166-16.244-30.767-34.899-43.566-55.886
			c2.673-1.902,5.202-4.003,7.512-6.421c12.373-12.956,18.463-32.499,20.068-58.737c1.981-32.369-2.881-74.953-11.413-128.261
			c-18.807-117.567,61.073-199.967,121.965-229.651c7.985-3.893,15.657-6.919,22.723-8.957c1.792-0.517,3.353-1.445,4.678-2.614
			C652.138,71.051,702.803,71.922,749.65,84.975z M223.387,641.573c-2.068,2.855-3.947,5.886-5.722,8.997
			c-9.048,15.848-14.549,34.448-18.566,50.66c-19.33-7.495-35.896-26.508-45.691-51.49c-4.209-10.735-7.203-22.534-8.578-35.024
			c-0.794-7.187,3.847-11.514,8.452-13.168c2.163-0.778,9.593-2.745,14.417,4.615C180.618,625.879,199.294,637.69,223.387,641.573z"
			/>
	</g>
</g>
</svg>
