<?xml version="1.0" encoding="utf-8"?>
<!-- Designed by Vexels.com - 2020 All Rights Reserved - https://vexels.com/terms-and-conditions/  -->
<svg version="1.1" id="Capa_1" xmlns="http://www.w3.org/2000/svg" xmlns:xlink="http://www.w3.org/1999/xlink" x="0px" y="0px"
	 viewBox="0 0 1200 1200" enable-background="new 0 0 1200 1200" xml:space="preserve">
<g>
	<g>
		<path d="M880.884,231.448c33.236,125.388,38.019,205.695,14.237,238.707c-7.286,10.147-17.121,15.981-29.28,17.456
			c2.481,11.466,7.242,33.861,11.511,56.346c6.661,35.135,8.918,53.039,8.918,62.538c0,9.142-2.079,10.483-4.336,11.913
			c-5.61,3.554-11.175,5.342-16.629,5.342c-2.369,0-4.694-0.313-7.018-0.983c-1.006-0.291-1.945-0.648-2.883-1.05
			c4.582,23.915,1.855,47.741-15.601,61.353c25.234,19.468,47.205,65.466,21.613,114.526v3.464
			c0.335,70.025-17.009,129.791-34.644,158.78l-12.136,143.671c1.587,4.716,5.185,18.305-1.833,29.704
			c-5.498,8.873-15.757,13.947-30.419,15.154c-0.514,0.134-1.028,0.201-1.587,0.201c-0.134,0-0.268-0.022-0.402-0.022
			c-0.849,0.045-1.743,0.089-2.704,0.112c-11.041,0.268-19.87,0.604-26.955,0.872c-6.594,0.246-11.891,0.469-16.204,0.469
			c-11.935,0-16.204-1.542-18.752-7.89c-2.503-6.281-3.956-18.551-4.448-37.505c0-0.089,0-0.179,0-0.268
			c0-0.291,0.313-30.554-2.19-61.13c-0.626-7.599-1.274-14.997-2.101-21.68c-30.151,17.814-67.589,26.53-114.079,26.553
			c-43.428-0.022-80.15-9.544-112.134-29.011c-0.939,7.197-1.654,15.31-2.392,24.139c-2.526,30.576-2.19,60.839-2.19,61.13
			c0,0.089,0,0.179,0,0.268c-0.738,28.408-3.576,36.387-5.632,39.919c-2.459,4.269-5.431,5.409-15.914,5.409
			c-4.202,0-9.633-0.179-16.741-0.425c-7.197-0.246-16.383-0.559-28.117-0.849l-1.319-0.045c-0.067,0-0.134,0-0.201,0
			c-0.313,0-0.626-0.045-0.939-0.089c-15.757-0.849-26.665-5.923-32.453-15.087c-7.219-11.444-3.598-25.189-1.989-29.928
			l-0.156-1.922c-0.112-0.536-0.134-1.073-0.134-1.609l-11.846-140.162c-20.295-33.504-34.487-96.98-34.644-155.271v-3.531
			c-26.374-46.624-7.51-84.307,1.945-98.455c7.666-11.488,17.233-20.384,26.307-25.011c-12.204-14.014-13.813-34.867-9.812-55.832
			c-0.939,0.402-1.877,0.76-2.883,1.05c-2.302,0.671-4.649,0.983-7.018,0.983c-5.454,0-11.019-1.788-16.629-5.342
			c-4.582-2.906-8.516-5.454,4.582-74.451c4.269-22.485,9.03-44.88,11.511-56.346c-12.159-1.453-21.993-7.309-29.28-17.456
			c-23.781-33.012-18.998-113.319,14.215-238.707c24.429-92.197,55.944-176.259,56.257-177.108c0.671-1.788,2.079-3.196,3.867-3.889
			c1.788-0.693,3.777-0.581,5.476,0.291c96.22,49.261,157.439,227.934,162.356,242.663l1.006,1.699
			c6.862-0.112,14.416-0.179,23.021-0.179c19.333,0.022,39.315,0.447,57.822,1.252c9.477,0.425,18.171,0.939,25.994,1.52
			c10.639-32.252,69.735-200.532,160.39-246.954c1.699-0.872,3.688-0.983,5.476-0.291c1.788,0.693,3.196,2.101,3.867,3.889
			C824.94,55.189,856.454,139.251,880.884,231.448z M884.236,462.332c14.662-20.362,23.737-76.306-16.294-227.353
			c-20.116-75.926-45.082-146.309-53.195-168.615c-78.943,46.959-133.77,196.374-146.063,232.493
			c29.034,2.839,34.152,6.258,36.164,7.622c3.084,2.056,3.889,6.236,1.833,9.298c-1.296,1.922-3.42,2.973-5.565,2.973
			c-1.296,0-2.593-0.358-3.733-1.14c-0.536-0.358-6.102-3.531-38.265-6.146c-0.045,0-0.067,0-0.112,0h-0.022
			c-6.973-0.581-14.819-1.095-23.379-1.542c5.588,130.998,38.801,208.511,113.81,266.243c47.004,31.917,50.088,79.479,50.111,90.99
			c1.721,3.621,8.896,15.958,24.184,9.834c1.296-0.514,2.704-1.207,4.202-2.034c12.315-7.063,16.137-19.982,16.137-33.258
			c0-18.015-7.018-36.678-9.343-42.4c0-0.022,0-0.022-0.022-0.045c0-0.022,0-0.045-0.022-0.045c0-0.022-0.022-0.045-0.022-0.067
			c-0.335-0.738-0.581-1.341-0.76-1.81c-0.022-0.045-0.045-0.067-0.045-0.089c-0.067-0.179-0.134-0.358-0.179-0.492
			c-1.162-3.509,0.738-7.309,4.269-8.471c2.369-0.782,4.85-0.134,6.594,1.43l0.022-0.022c0.134,0.134,0.268,0.246,0.402,0.402
			c0.045,0.045,0.067,0.067,0.112,0.112c0.022,0.045,0.045,0.067,0.067,0.112c0.156,0.156,0.291,0.335,0.402,0.514
			c0.112,0.134,0.179,0.268,0.268,0.402c0.022,0.045,0.045,0.067,0.067,0.112c0,0,0.022,0.022,0.022,0.045l0.022-0.022
			c0,0,0.045,0.112,0.134,0.313c0.089,0.156,0.156,0.335,0.224,0.514l0.648,1.565c0.045,0.067,0.067,0.134,0.112,0.201
			c1.587,3.353,7.085,13.634,14.997,15.914c3.33,0.961,6.929,0.402,10.885-1.699c1.095-12.315-9.969-72.081-21.881-125.478
			c-0.447-2.012,0.067-4.135,1.386-5.744c1.341-1.587,3.263-2.503,5.409-2.414C869.284,474.983,878,470.982,884.236,462.332z
			 M848.81,792.789c26.799-49.395-2.794-90.163-20.831-101.652l-1.9-0.76c-15.176,4.962-26.307-1.363-33.034-8.963
			c-11.086,14.528-38.645,43.137-93.717,61.331c-0.693,0.224-1.408,0.335-2.101,0.335c-2.816,0-5.431-1.788-6.37-4.604
			c-1.162-3.509,0.76-7.309,4.269-8.471c60.973-20.116,85.693-53.821,90.99-62.023c0.112-7.309-1.028-51.496-44.389-80.843
			c-0.112-0.067-0.224-0.134-0.335-0.224c-77.803-59.833-113.609-143.09-119.219-277.575c-14.483-0.559-29.704-0.894-44.657-0.983
			c-5.677,135.2-41.505,218.77-119.242,278.558c-0.112,0.089-0.224,0.156-0.335,0.246c-42.355,28.631-44.456,71.411-44.411,80.239
			c4.448,6.996,29.235,42.087,91.348,62.605c3.509,1.162,5.431,4.962,4.269,8.471c-0.939,2.816-3.554,4.604-6.37,4.604
			c-0.693,0-1.408-0.112-2.101-0.335c-55.117-18.216-82.765-47.004-93.784-61.42c-3.174,3.599-7.622,7.309-13.522,9.32
			c-8.158,2.749-17.009,1.632-26.329-3.219c-5.588,0.156-17.903,7.756-27.782,22.574c-8.158,12.204-24.541,45.037-0.603,85.872
			c0.067,0.112,0.112,0.224,0.179,0.335c0.045,0.089,0.112,0.179,0.179,0.291c6.392-12.159,18.082-31.202,32.319-39.583
			c2.213-1.296,4.984-1.207,7.13,0.224c2.146,1.43,3.263,3.956,2.906,6.504c-0.402,2.95-8.873,69.489,52.144,106.435
			c0.156-20.987,3.822-61.107,29.145-63.298c2.324-0.179,4.56,0.805,5.968,2.682c1.386,1.855,1.699,4.314,0.849,6.459
			c-0.827,2.146-19.646,53.262,42.69,93.426c52.815,34.018,60.146,69.221,60.191,86.028c55.542-12.964,91.437-55.43,108.267-80.396
			c26.575-39.405,37.818-80.463,35.203-100.646c-0.246-2.034,0.425-4.045,1.81-5.521c1.408-1.453,3.397-2.19,5.431-2.034
			c25.323,2.19,28.989,42.31,29.146,63.275c61.219-37.214,52.256-105.675,52.144-106.412c-0.358-2.548,0.76-5.074,2.906-6.504
			c2.146-1.43,4.917-1.52,7.13-0.224c14.215,8.382,25.927,27.424,32.319,39.583C847.447,795.27,848.14,794.041,848.81,792.789z
			 M847.782,816.347c-0.894,0.268-1.81,0.425-2.771,0.313c-2.392-0.268-4.448-1.81-5.387-4.046
			c-2.995-7.04-11.377-23.558-21.479-34.957c-0.894,26.732-10.527,80.619-69.936,109.877c-2.146,1.05-4.694,0.894-6.683-0.425
			c-1.989-1.341-3.129-3.621-2.973-6.012c0.939-15.511-0.492-44.635-9.052-56.123c-1.408,27.089-15.847,65.019-37.75,97.494
			c-32.632,48.39-77.312,79.591-125.768,87.861c-0.38,0.067-0.76,0.089-1.14,0.089c-1.855,0-3.666-0.782-4.94-2.168
			c-1.542-1.676-2.123-4.023-1.542-6.236c0.38-1.609,9.141-41.058-53.463-81.402c-47.384-30.509-53.217-68.192-51.608-90.476
			c-5.968,13.5-6.951,37.415-6.124,50.96c0.156,2.392-0.983,4.671-2.973,6.012c-1.989,1.319-4.537,1.475-6.683,0.425
			c-59.431-29.28-69.042-83.167-69.936-109.899c-10.125,11.421-18.484,27.939-21.479,34.979c-0.939,2.213-2.995,3.777-5.387,4.046
			c-0.313,0.045-0.603,0-0.916-0.022c2.079,58.805,17.791,112.805,33.236,137.48c0.581,0.894,0.916,1.922,1.006,2.995
			l11.377,134.641c7.309-1.296,19.959-2.66,40.79-2.66c3.71,0,6.705,2.995,6.705,6.705c0,3.71-2.995,6.705-6.705,6.705
			c-22.038,0-34.063,1.587-39.807,2.704c-0.089,0.626-0.223,1.229-0.469,1.81c-0.022,0.089-4.604,11.488,0.358,19.311
			c2.66,4.157,7.823,6.862,15.333,8.113v-9.812c0-3.71,2.995-6.705,6.705-6.705s6.705,2.995,6.705,6.705v10.751
			c6.035,0.156,11.354,0.313,16.026,0.469v-11.22c0-3.71,2.995-6.705,6.705-6.705s6.705,2.995,6.705,6.705v11.689
			c7.197,0.224,12.628,0.335,15.132,0.112c0.961-2.883,2.682-10.907,3.241-32.051c-0.022-2.28-0.268-32.096,2.235-62.292
			c1.118-13.545,2.213-25.547,4.224-35.493c0,0,0-0.022,0-0.045c2.235-11.019,5.454-18.641,10.17-23.938
			c2.459-2.749,6.705-2.995,9.477-0.536c2.749,2.459,2.995,6.705,0.536,9.477c-2.481,2.771-4.448,7.175-6.035,13.321
			c30.844,20.004,66.65,29.771,109.318,29.794c46.579-0.022,83.19-9.03,111.933-27.424c-1.654-7.488-3.8-12.561-6.594-15.69
			c-2.459-2.771-2.213-7.018,0.536-9.477c2.771-2.459,7.018-2.213,9.477,0.536c5.074,5.722,8.359,13.857,10.639,26.396
			c0,0.022,0,0.045,0,0.067c0.022,0.045,0.022,0.067,0.022,0.112c1.721,9.432,2.704,20.496,3.733,32.9
			c2.481,30.218,2.257,60.057,2.235,62.292c0.514,20.339,2.123,28.609,3.196,31.917c2.414,0.469,8.672,0.335,16.741,0.045v-11.712
			c0-3.71,2.995-6.705,6.705-6.705c3.71,0,6.705,2.995,6.705,6.705v11.22c4.694-0.179,9.991-0.358,16.003-0.514v-10.706
			c0-3.71,2.995-6.705,6.705-6.705c3.71,0,6.705,2.995,6.705,6.705v9.544c6.772-1.386,11.399-4.046,13.857-7.957
			c3.755-6.057,1.878-14.193,0.827-17.59c-2.995-1.699-13.299-6.124-39.27-6.124c-3.71,0-6.705-2.995-6.705-6.705
			c0-3.71,2.995-6.705,6.705-6.705c19.445,0,31.582,2.369,39.047,4.895l11.578-136.876c0.089-1.073,0.447-2.101,1.006-3.017
			C830.17,929.33,845.771,878.102,847.782,816.347z M564.083,308.357c-7.242,0.022-13.746,0.089-19.669,0.224h-0.022
			c-0.045,0-0.067,0.022-0.112,0.022c-0.022,0-0.067-0.022-0.089-0.022c-32.833,0.738-45.462,2.637-47.741,3.666
			c-3.174,1.9-7.197,0.805-9.097-2.392c-1.877-3.174-0.76-7.331,2.436-9.231c1.877-1.118,6.638-3.911,43.785-5.163
			c-7.979-22.954-64.929-179.857-148.342-229.118c-8.113,22.284-33.079,92.689-53.195,168.637
			c-40.008,151.047-30.934,206.991-16.271,227.33c6.236,8.672,14.886,12.695,26.419,12.226c2.123-0.089,4.068,0.827,5.409,2.414
			c1.319,1.609,1.833,3.733,1.386,5.744c-11.913,53.396-22.977,113.162-21.881,125.478c3.956,2.101,7.532,2.66,10.885,1.699
			c8.024-2.302,13.567-12.896,15.087-16.07v-0.022l0.693-1.632c0.067-0.156,0.134-0.313,0.201-0.469
			c0.067-0.134,0.134-0.246,0.179-0.358c0.022-0.045,0.045-0.067,0.067-0.112c1.118-2.146,3.353-3.598,5.923-3.598
			c3.71,0,6.705,2.995,6.705,6.705c0,0.916-0.201,1.877-0.581,2.749c-0.045,0.067-0.067,0.179-0.134,0.268v0.022
			c-0.179,0.469-0.447,1.073-0.76,1.788c0,0.022-0.022,0.022-0.022,0.045c0,0.022-0.022,0.045-0.022,0.045
			c0,0.022-0.022,0.045-0.022,0.067c-4.046,9.924-22.217,59.006,6.862,75.702c6.325,3.554,12.002,4.56,16.83,2.95
			c6.079-2.012,9.767-7.689,11.131-10.147c-0.067-10.326,2.213-59.118,50.133-91.638
			C524.299,519.126,558.518,438.752,564.083,308.357z"/>
	</g>
	<g>
		<path fill="#BF8055" d="M844.943,590.089c-0.134-0.156-0.268-0.268-0.402-0.402l-0.022,0.022c-1.743-1.565-4.224-2.213-6.594-1.43
			c-3.531,1.162-5.431,4.962-4.269,8.471c0.045,0.134,0.112,0.313,0.179,0.492c0,0.022,0.022,0.045,0.045,0.089
			c0.179,0.469,0.425,1.073,0.76,1.81c0,0.022,0.022,0.045,0.022,0.067c0.022,0,0.022,0.022,0.022,0.045
			c0.022,0.022,0.022,0.022,0.022,0.045c2.324,5.722,9.343,24.385,9.343,42.4c0,13.276-3.822,26.195-16.137,33.258
			c-1.497,0.827-2.906,1.52-4.202,2.034c-15.288,6.124-22.463-6.214-24.184-9.834c-0.022-11.511-3.107-59.073-50.111-90.99
			c-75.009-57.732-108.223-135.245-113.81-266.243c8.56,0.447,16.406,0.961,23.379,1.542h0.022c0.045,0,0.067,0,0.112,0
			c32.163,2.615,37.728,5.789,38.265,6.146c1.14,0.782,2.436,1.14,3.733,1.14c2.146,0,4.269-1.05,5.565-2.973
			c2.056-3.062,1.252-7.242-1.833-9.298c-2.012-1.363-7.13-4.783-36.164-7.622c12.293-36.119,67.12-185.534,146.063-232.493
			c8.113,22.306,33.079,92.689,53.195,168.615c40.03,151.047,30.956,206.991,16.294,227.353
			c-6.236,8.65-14.953,12.651-26.419,12.204c-2.146-0.089-4.068,0.827-5.409,2.414c-1.319,1.609-1.833,3.733-1.386,5.744
			C862.936,536.09,874,595.856,872.904,608.171c-3.956,2.101-7.555,2.66-10.885,1.699c-7.912-2.28-13.41-12.561-14.997-15.914
			c-0.045-0.067-0.067-0.134-0.112-0.201l-0.648-1.565c-0.067-0.179-0.134-0.358-0.224-0.514c-0.089-0.201-0.134-0.313-0.134-0.313
			l-0.022,0.022c0-0.022-0.022-0.045-0.022-0.045c-0.022-0.045-0.045-0.067-0.067-0.112c-0.089-0.134-0.156-0.268-0.268-0.402
			c-0.112-0.179-0.246-0.358-0.402-0.514c-0.022-0.045-0.045-0.067-0.067-0.112C845.011,590.156,844.988,590.134,844.943,590.089z
			 M855.18,405.36c17.277-24.72,15.132-82.631-6.392-172.146c-15.78-65.555-36.588-125.075-36.789-125.656
			c-0.76-2.168-2.57-3.8-4.783-4.314c-2.235-0.514-4.582,0.134-6.214,1.721c-3.151,3.04-76.887,76.373-70.562,215.082
			c0.112,2.324,1.43,4.425,3.464,5.565c2.056,1.118,4.537,1.095,6.571-0.067l34.644-19.78l2.302,43.159
			c0.134,2.19,1.319,4.202,3.196,5.364c1.877,1.14,4.202,1.296,6.214,0.402l20.16-8.873l-5.655,36.342
			c-0.246,1.632,0.112,3.308,1.028,4.694l19.602,29.995c1.229,1.9,3.353,3.04,5.61,3.04c0.022,0,0.067,0,0.089,0
			C839.155,419.731,848.654,414.703,855.18,405.36z M739.47,455.85c0-11.891-9.656-21.546-21.546-21.546
			c-11.868,0-21.546,9.656-21.546,21.546c0,11.891,9.678,21.546,21.546,21.546C729.814,477.397,739.47,467.741,739.47,455.85z"/>
	</g>
	<g>
		<path d="M848.788,233.214c21.524,89.515,23.67,147.426,6.392,172.146c-6.526,9.343-16.026,14.372-27.514,14.528
			c-0.022,0-0.067,0-0.089,0c-2.257,0-4.381-1.14-5.61-3.04l-19.602-29.995c-0.916-1.386-1.274-3.062-1.028-4.694l5.655-36.342
			l-20.16,8.873c-2.012,0.894-4.336,0.738-6.214-0.402c-1.878-1.162-3.062-3.174-3.196-5.364l-2.302-43.159l-34.644,19.78
			c-2.034,1.162-4.515,1.185-6.571,0.067c-2.034-1.14-3.353-3.241-3.464-5.565c-6.325-138.709,67.41-212.042,70.562-215.082
			c1.632-1.587,3.978-2.235,6.214-1.721c2.213,0.514,4.023,2.146,4.783,4.314C812.2,108.139,833.008,167.659,848.788,233.214z
			 M844.184,397.694c28.721-41.126-16.942-203.035-41.103-274.87c-17.612,21.613-60.928,85.09-59.565,185.557l34.376-19.646
			c2.012-1.162,4.492-1.185,6.549-0.067c2.034,1.095,3.353,3.196,3.487,5.521l2.369,44.322l22.485-9.901
			c2.235-1.006,4.85-0.693,6.795,0.805s2.906,3.934,2.526,6.348l-7.108,45.909l16.026,24.519
			C836.54,405.338,840.764,402.588,844.184,397.694z"/>
	</g>
	<g>
		<g>
			<path fill="#FFEEC3" d="M827.979,691.138c18.037,11.488,47.63,52.256,20.831,101.652c-0.671,1.252-1.363,2.481-2.101,3.71
				c-6.392-12.159-18.104-31.202-32.319-39.583c-2.213-1.296-4.984-1.207-7.13,0.224c-2.146,1.43-3.263,3.956-2.906,6.504
				c0.112,0.738,9.074,69.198-52.144,106.412c-0.156-20.965-3.822-61.085-29.146-63.275c-2.034-0.156-4.023,0.581-5.431,2.034
				c-1.386,1.475-2.056,3.487-1.81,5.521c2.615,20.183-8.627,61.241-35.203,100.646c-16.83,24.966-52.726,67.432-108.267,80.396
				c-0.045-16.808-7.376-52.01-60.191-86.028c-62.336-40.164-43.517-91.281-42.69-93.426c0.849-2.146,0.536-4.604-0.849-6.459
				c-1.408-1.878-3.643-2.861-5.968-2.682c-25.323,2.19-28.989,42.31-29.145,63.298c-61.018-36.946-52.547-103.484-52.144-106.435
				c0.358-2.548-0.76-5.074-2.906-6.504c-2.146-1.43-4.917-1.52-7.13-0.224c-14.237,8.382-25.927,27.424-32.319,39.583
				c-0.067-0.112-0.134-0.201-0.179-0.291c-0.067-0.112-0.112-0.224-0.179-0.335c-23.938-40.835-7.555-73.668,0.603-85.872
				c9.879-14.819,22.194-22.418,27.782-22.574c9.32,4.85,18.171,5.968,26.329,3.219c5.901-2.012,10.348-5.722,13.522-9.32
				c11.019,14.416,38.667,43.204,93.784,61.42c0.693,0.224,1.408,0.335,2.101,0.335c2.816,0,5.431-1.788,6.37-4.604
				c1.162-3.509-0.76-7.309-4.269-8.471c-62.113-20.518-86.9-55.609-91.348-62.605c-0.045-8.829,2.056-51.608,44.411-80.239
				c0.112-0.089,0.224-0.156,0.335-0.246c77.736-59.788,113.565-143.358,119.242-278.558c14.953,0.089,30.174,0.425,44.657,0.983
				c5.61,134.485,41.416,217.742,119.219,277.575c0.112,0.089,0.224,0.156,0.335,0.224c43.361,29.347,44.5,73.534,44.389,80.843
				c-5.297,8.203-30.017,41.908-90.99,62.023c-3.509,1.162-5.431,4.962-4.269,8.471c0.939,2.816,3.554,4.604,6.37,4.604
				c0.693,0,1.408-0.112,2.101-0.335c55.072-18.194,82.631-46.803,93.717-61.331c6.728,7.599,17.858,13.925,33.034,8.963
				L827.979,691.138z M666.36,597.085c11.31-14.752,5.767-35.828,5.543-36.7c-0.983-3.576-4.671-5.699-8.225-4.738
				c-3.576,0.983-5.699,4.649-4.738,8.225c0.045,0.156,3.978,15.668-3.219,25.078c-4.068,5.297-11.354,8.002-21.636,8.002
				c-1.185,0-2.257-0.067-3.219-0.156c-0.067-0.022-0.112-0.045-0.179-0.045c-25.502-2.816-31.291-39.494-32.587-54.737
				c24.318-1.565,42.69-14.528,42.69-30.777c0-17.344-20.943-30.934-47.674-30.934s-47.652,13.589-47.652,30.934
				c0,15.355,16.406,27.737,38.689,30.397c-0.827,14.841-5.387,52.279-30.978,55.117c-0.067,0-0.112,0.022-0.179,0.022
				c-0.961,0.112-2.012,0.179-3.219,0.179c-10.259,0-17.545-2.682-21.613-7.979c-7.286-9.454-3.308-24.966-3.263-25.1
				c0.961-3.576-1.162-7.242-4.738-8.225c-3.554-0.961-7.242,1.162-8.225,4.738c-0.224,0.872-5.744,21.926,5.543,36.7
				c6.057,7.912,15.444,12.293,27.916,13.098c-1.9,10.505-2.995,28.05,6.661,41.215c7.845,10.751,20.876,16.182,38.689,16.182
				c17.97,0,31.224-5.521,39.427-16.406c9.924-13.165,9.41-30.665,7.957-40.969C650.76,609.445,660.259,605.065,666.36,597.085z
				 M621.435,842.229c1.229-49.105-36.342-77.11-37.929-78.273c-2.995-2.19-7.197-1.542-9.365,1.453
				c-2.19,2.995-1.542,7.197,1.453,9.365c0.291,0.224,25.771,19.199,31.381,52.234c-8.18-5.096-19.266-9.03-30.33-3.688
				c-1.654,0.782-2.906,2.213-3.464,3.956c-0.581,1.743-0.402,3.643,0.469,5.252c0.156,0.313,16.562,31.112,16.808,54.581
				c0.045,3.688,3.04,6.638,6.705,6.638c0.022,0,0.045,0,0.067,0c3.71-0.045,6.683-3.062,6.638-6.772
				c-0.201-19.021-9.052-41.036-14.416-52.659c10.08,1.162,20.138,12.047,20.272,12.181c1.81,2.056,4.716,2.794,7.309,1.855
				C619.625,847.392,621.368,844.978,621.435,842.229z"/>
		</g>
	</g>
	<g>
		<path fill="#BF8055" d="M845.011,816.66c0.961,0.112,1.878-0.045,2.771-0.313c-2.012,61.755-17.612,112.983-33.236,137.748
			c-0.559,0.916-0.916,1.945-1.006,3.017l-11.578,136.876c-7.465-2.526-19.602-4.895-39.047-4.895c-3.71,0-6.705,2.995-6.705,6.705
			c0,3.71,2.995,6.705,6.705,6.705c25.972,0,36.275,4.425,39.27,6.124c1.05,3.397,2.928,11.533-0.827,17.59
			c-2.459,3.911-7.085,6.571-13.857,7.957v-9.544c0-3.71-2.995-6.705-6.705-6.705c-3.71,0-6.705,2.995-6.705,6.705v10.706
			c-6.012,0.156-11.31,0.335-16.003,0.514v-11.22c0-3.71-2.995-6.705-6.705-6.705c-3.71,0-6.705,2.995-6.705,6.705v11.712
			c-8.069,0.291-14.327,0.425-16.741-0.045c-1.073-3.308-2.682-11.578-3.196-31.917c0.022-2.235,0.246-32.073-2.235-62.292
			c-1.028-12.405-2.012-23.468-3.733-32.9c0-0.045,0-0.067-0.022-0.112c0-0.022,0-0.045,0-0.067
			c-2.28-12.539-5.565-20.674-10.639-26.396c-2.459-2.749-6.705-2.995-9.477-0.536c-2.749,2.459-2.995,6.705-0.536,9.477
			c2.794,3.129,4.94,8.203,6.594,15.69c-28.743,18.395-65.354,27.402-111.933,27.424c-42.668-0.022-78.474-9.79-109.318-29.794
			c1.587-6.146,3.554-10.55,6.035-13.321c2.459-2.771,2.213-7.018-0.536-9.477c-2.771-2.459-7.018-2.213-9.477,0.536
			c-4.716,5.297-7.935,12.919-10.17,23.938c0,0.022,0,0.045,0,0.045c-2.012,9.946-3.107,21.949-4.224,35.493
			c-2.503,30.196-2.257,60.012-2.235,62.292c-0.559,21.144-2.28,29.168-3.241,32.051c-2.503,0.224-7.935,0.112-15.132-0.112v-11.689
			c0-3.71-2.995-6.705-6.705-6.705s-6.705,2.995-6.705,6.705v11.22c-4.671-0.156-9.991-0.313-16.026-0.469v-10.751
			c0-3.71-2.995-6.705-6.705-6.705s-6.705,2.995-6.705,6.705v9.812c-7.51-1.252-12.673-3.956-15.333-8.113
			c-4.962-7.823-0.38-19.222-0.358-19.311c0.246-0.581,0.38-1.185,0.469-1.81c5.744-1.118,17.769-2.704,39.807-2.704
			c3.71,0,6.705-2.995,6.705-6.705c0-3.71-2.995-6.705-6.705-6.705c-20.831,0-33.482,1.363-40.79,2.66l-11.377-134.641
			c-0.089-1.073-0.425-2.101-1.006-2.995c-15.444-24.675-31.157-78.675-33.236-137.48c0.313,0.022,0.603,0.067,0.916,0.022
			c2.392-0.268,4.448-1.833,5.387-4.046c2.995-7.04,11.354-23.558,21.479-34.979c0.894,26.732,10.505,80.619,69.936,109.899
			c2.146,1.05,4.694,0.894,6.683-0.425c1.989-1.341,3.129-3.621,2.973-6.012c-0.827-13.545,0.156-37.46,6.124-50.96
			c-1.609,22.284,4.224,59.967,51.608,90.476c62.605,40.343,53.843,79.792,53.463,81.402c-0.581,2.213,0,4.56,1.542,6.236
			c1.274,1.386,3.084,2.168,4.94,2.168c0.38,0,0.76-0.022,1.14-0.089c48.457-8.27,93.136-39.472,125.768-87.861
			c21.904-32.476,36.342-70.405,37.75-97.494c8.56,11.488,9.991,40.611,9.052,56.123c-0.156,2.392,0.983,4.671,2.973,6.012
			c1.989,1.319,4.537,1.475,6.683,0.425c59.409-29.257,69.042-83.145,69.936-109.877c10.103,11.399,18.484,27.916,21.479,34.957
			C840.563,814.849,842.619,816.392,845.011,816.66z"/>
	</g>
	<g>
		<path fill="#F1D4D6" d="M803.08,122.823c24.161,71.836,69.824,233.745,41.103,274.87c-3.42,4.895-7.644,7.644-13.165,8.493
			l-16.026-24.519l7.108-45.909c0.38-2.414-0.581-4.85-2.526-6.348s-4.56-1.81-6.795-0.805l-22.485,9.901l-2.369-44.322
			c-0.134-2.324-1.453-4.425-3.487-5.521c-2.056-1.118-4.537-1.095-6.549,0.067l-34.376,19.646
			C742.152,207.913,785.468,144.436,803.08,122.823z"/>
	</g>
	<g>
		<circle cx="717.924" cy="455.85" r="21.546"/>
	</g>
	<g>
		<path d="M671.903,560.385c0.224,0.872,5.766,21.949-5.543,36.7c-6.102,7.979-15.601,12.36-28.229,13.12
			c1.453,10.304,1.967,27.804-7.957,40.969c-8.203,10.885-21.457,16.406-39.427,16.406c-17.814,0-30.844-5.431-38.689-16.182
			c-9.656-13.165-8.56-30.71-6.661-41.215c-12.472-0.805-21.859-5.185-27.916-13.098c-11.287-14.774-5.767-35.828-5.543-36.7
			c0.983-3.576,4.671-5.699,8.225-4.738c3.576,0.983,5.699,4.649,4.738,8.225c-0.045,0.134-4.023,15.646,3.263,25.1
			c4.068,5.297,11.354,7.979,21.613,7.979c1.207,0,2.257-0.067,3.219-0.179c0.067,0,0.112-0.022,0.179-0.022
			c25.592-2.839,30.151-40.276,30.978-55.117c-22.284-2.66-38.689-15.042-38.689-30.397c0-17.344,20.92-30.934,47.652-30.934
			s47.674,13.589,47.674,30.934c0,16.249-18.372,29.213-42.69,30.777c1.296,15.243,7.085,51.921,32.587,54.737
			c0.067,0,0.112,0.022,0.179,0.045c0.961,0.089,2.034,0.156,3.219,0.156c10.281,0,17.568-2.704,21.636-8.002
			c7.197-9.41,3.263-24.921,3.219-25.078c-0.961-3.576,1.162-7.242,4.738-8.225C667.232,554.686,670.92,556.809,671.903,560.385z
			 M619.424,643.15c8.024-10.639,6.325-26.597,4.962-33.929c-17.434-4.023-27.29-18.529-32.856-33.66
			c-5.208,15.176-14.752,29.727-32.23,33.705c-1.654,7.353-4.113,23.714,3.576,34.219c5.185,7.085,14.573,10.684,27.871,10.684
			C604.247,654.169,613.903,650.459,619.424,643.15z"/>
	</g>
	<g>
		<path fill="#FF9AA2" d="M624.386,609.222c1.363,7.331,3.062,23.29-4.962,33.929c-5.521,7.309-15.176,11.019-28.676,11.019
			c-13.299,0-22.686-3.598-27.871-10.684c-7.689-10.505-5.23-26.866-3.576-34.219c17.478-3.978,27.022-18.529,32.23-33.705
			C597.095,590.693,606.952,605.199,624.386,609.222z M597.453,629.181v-25.525c0-3.71-2.995-6.705-6.705-6.705
			c-3.71,0-6.705,2.995-6.705,6.705v25.525c0,3.71,2.995,6.705,6.705,6.705C594.458,635.886,597.453,632.891,597.453,629.181z"/>
	</g>
	<g>
		<path d="M583.506,763.957c1.587,1.162,39.159,29.168,37.929,78.273c-0.067,2.749-1.81,5.163-4.403,6.124
			c-2.593,0.939-5.498,0.201-7.309-1.855c-0.134-0.134-10.192-11.019-20.272-12.181c5.364,11.622,14.215,33.638,14.416,52.659
			c0.045,3.71-2.928,6.728-6.638,6.772c-0.022,0-0.045,0-0.067,0c-3.666,0-6.661-2.95-6.705-6.638
			c-0.246-23.468-16.651-54.268-16.808-54.581c-0.872-1.609-1.05-3.509-0.469-5.252c0.559-1.743,1.81-3.174,3.464-3.956
			c11.064-5.342,22.15-1.408,30.33,3.688c-5.61-33.035-31.09-52.01-31.381-52.234c-2.995-2.168-3.643-6.37-1.453-9.365
			C576.309,762.414,580.511,761.766,583.506,763.957z"/>
	</g>
	<g>
		<path d="M597.453,603.656v25.525c0,3.71-2.995,6.705-6.705,6.705c-3.71,0-6.705-2.995-6.705-6.705v-25.525
			c0-3.71,2.995-6.705,6.705-6.705C594.458,596.951,597.453,599.946,597.453,603.656z"/>
	</g>
	<g>
		<path fill="#BF8055" d="M544.414,308.581c5.923-0.134,12.427-0.201,19.669-0.224c-5.565,130.395-39.784,210.768-113.833,267.808
			c-47.92,32.52-50.2,81.312-50.133,91.638c-1.363,2.459-5.051,8.136-11.131,10.147c-4.828,1.609-10.505,0.603-16.83-2.95
			c-29.078-16.696-10.907-65.779-6.862-75.702c0-0.022,0.022-0.045,0.022-0.067c0,0,0.022-0.022,0.022-0.045
			c0-0.022,0.022-0.022,0.022-0.045c0.313-0.715,0.581-1.319,0.76-1.788v-0.022c0.067-0.089,0.089-0.201,0.134-0.268
			c0.38-0.872,0.581-1.833,0.581-2.749c0-3.71-2.995-6.705-6.705-6.705c-2.57,0-4.805,1.453-5.923,3.598
			c-0.022,0.045-0.045,0.067-0.067,0.112c-0.045,0.112-0.112,0.224-0.179,0.358c-0.067,0.156-0.134,0.313-0.201,0.469l-0.693,1.632
			v0.022c-1.52,3.174-7.063,13.768-15.087,16.07c-3.353,0.961-6.929,0.402-10.885-1.699c-1.095-12.315,9.968-72.081,21.881-125.478
			c0.447-2.012-0.067-4.135-1.386-5.744c-1.341-1.587-3.286-2.503-5.409-2.414c-11.533,0.469-20.183-3.554-26.419-12.226
			c-14.662-20.339-23.737-76.283,16.271-227.33c20.116-75.948,45.082-146.353,53.195-168.637
			c83.413,49.261,140.363,206.164,148.342,229.118c-37.147,1.252-41.908,4.046-43.785,5.163c-3.196,1.9-4.314,6.057-2.436,9.231
			c1.9,3.196,5.923,4.291,9.097,2.392c2.28-1.028,14.908-2.928,47.741-3.666c0.022,0,0.067,0.022,0.089,0.022
			c0.045,0,0.067-0.022,0.112-0.022H544.414z M492.203,455.85c0-11.891-9.656-21.546-21.524-21.546
			c-11.891,0-21.546,9.656-21.546,21.546c0,11.891,9.656,21.546,21.546,21.546C482.547,477.397,492.203,467.741,492.203,455.85z
			 M469.561,320.047c6.303-138.709-67.41-212.02-70.562-215.082c-1.632-1.587-3.978-2.235-6.214-1.721
			c-2.213,0.514-4.023,2.146-4.783,4.314c-0.201,0.581-21.01,60.101-36.789,125.656c-21.501,89.515-23.67,147.426-6.392,172.146
			c6.526,9.343,16.026,14.372,27.514,14.528c0.022,0,0.067,0,0.089,0c2.257,0,4.381-1.14,5.61-3.04l19.602-29.995
			c0.916-1.386,1.274-3.062,1.006-4.694l-5.632-36.342l20.16,8.873c2.012,0.894,4.336,0.738,6.214-0.402
			c1.877-1.162,3.062-3.174,3.196-5.364l2.302-43.159l34.644,19.78c2.034,1.162,4.515,1.185,6.571,0.067
			C468.131,324.472,469.45,322.371,469.561,320.047z"/>
	</g>
	<g>
		<path d="M470.679,434.304c11.868,0,21.524,9.656,21.524,21.546c0,11.891-9.656,21.546-21.524,21.546
			c-11.891,0-21.546-9.656-21.546-21.546C449.133,443.96,458.788,434.304,470.679,434.304z"/>
	</g>
	<g>
		<path d="M399,104.965c3.151,3.062,76.865,76.373,70.562,215.082c-0.112,2.324-1.43,4.425-3.464,5.565
			c-2.056,1.118-4.537,1.095-6.571-0.067l-34.644-19.78l-2.302,43.159c-0.134,2.19-1.319,4.202-3.196,5.364
			c-1.877,1.14-4.202,1.296-6.214,0.402l-20.16-8.873l5.632,36.342c0.268,1.632-0.089,3.308-1.006,4.694l-19.602,29.995
			c-1.229,1.9-3.353,3.04-5.61,3.04c-0.022,0-0.067,0-0.089,0c-11.488-0.156-20.987-5.185-27.514-14.528
			c-17.277-24.72-15.109-82.631,6.392-172.146c15.78-65.555,36.588-125.075,36.789-125.656c0.76-2.168,2.57-3.8,4.783-4.314
			C395.021,102.73,397.368,103.378,399,104.965z M456.486,308.38c1.363-100.445-41.952-163.943-59.565-185.534
			c-24.161,71.813-69.824,233.723-41.103,274.848c3.42,4.895,7.644,7.644,13.165,8.493l16.026-24.519l-7.152-45.909
			c-0.358-2.414,0.603-4.85,2.548-6.348s4.56-1.81,6.795-0.827l22.507,9.924l2.369-44.322c0.134-2.324,1.453-4.425,3.487-5.521
			c2.056-1.118,4.515-1.095,6.549,0.067L456.486,308.38z"/>
	</g>
	<g>
		<path fill="#F1D4D6" d="M396.921,122.845c17.612,21.591,60.928,85.09,59.565,185.534l-34.376-19.646
			c-2.034-1.162-4.493-1.185-6.549-0.067c-2.034,1.095-3.353,3.196-3.487,5.521l-2.369,44.322l-22.507-9.924
			c-2.235-0.983-4.85-0.671-6.795,0.827s-2.906,3.934-2.548,6.348l7.152,45.909l-16.026,24.519
			c-5.521-0.849-9.745-3.598-13.165-8.493C327.097,356.568,372.76,194.659,396.921,122.845z"/>
	</g>
</g>
</svg>
